<svg width="36" height="36" viewBox="0 0 36 36" fill="none" xmlns="http://www.w3.org/2000/svg">
<path d="M24 16C24 19.32 21.32 22 18 22C14.68 22 12 19.32 12 16C12 12.68 14.68 10 18 10C21.32 10 24 12.68 24 16Z" fill="#808080"/>
<path fill-rule="evenodd" clip-rule="evenodd" d="M34 18C34 26.84 26.84 34 18 34C9.16 34 2 26.84 2 18C2 9.16 9.16 2 18 2C26.84 2 34 9.16 34 18ZM10 29.5C10.32 28.968 13.42 24 17.98 24C22.52 24 25.64 28.98 25.96 29.5C27.8197 28.214 29.3393 26.4955 30.3879 24.4922C31.4365 22.489 31.9829 20.2611 31.98 18C31.98 10.26 25.72 4 17.98 4C10.24 4 3.98 10.26 3.98 18C3.98 22.76 6.36 26.98 10 29.5Z" fill="black"/>
</svg>
