<svg width="582" height="248" viewBox="0 0 582 248" fill="none" xmlns="http://www.w3.org/2000/svg">
<path opacity="0.37" d="M58.4 100.16H100.52V113.6H75.68V127.04H98.84V140.48H75.68V156.44H100.52V170H58.4V100.16ZM193.736 100.16V170H177.896V137.96C177.896 135.8 177.936 133.32 178.016 130.52C178.096 127.72 178.176 125.12 178.256 122.72C178.416 120.24 178.536 118.4 178.616 117.2H178.256L161.456 170H145.376L129.176 117.08H128.696C128.856 118.28 129.016 120.12 129.176 122.6C129.336 125.08 129.456 127.76 129.536 130.64C129.696 133.44 129.776 136.04 129.776 138.44V170H114.416V100.16H137.576L153.776 151.88H154.136L170.816 100.16H193.736ZM234.624 100.16C243.904 100.16 250.744 102.08 255.144 105.92C259.544 109.76 261.744 115.16 261.744 122.12C261.744 125.24 261.264 128.24 260.304 131.12C259.344 133.92 257.784 136.44 255.624 138.68C253.544 140.92 250.704 142.68 247.104 143.96C243.584 145.24 239.224 145.88 234.024 145.88H228.024V170H210.744V100.16H234.624ZM232.224 132.32C235.824 132.32 238.744 131.52 240.984 129.92C243.224 128.32 244.344 125.8 244.344 122.36C244.344 119.48 243.504 117.32 241.824 115.88C240.224 114.36 237.664 113.6 234.144 113.6H228.024V132.32H232.224ZM262.344 170L286.944 99.8H308.784L333.624 170H315.144L310.464 155H285.624L280.944 170H262.344ZM302.424 127.04C302.024 125.84 301.544 124.28 300.984 122.36C300.424 120.36 299.864 118.32 299.304 116.24C298.744 114.16 298.264 112.4 297.864 110.96C297.624 112.4 297.224 114.16 296.664 116.24C296.104 118.32 295.544 120.36 294.984 122.36C294.424 124.36 293.984 125.92 293.664 127.04L289.344 141.08H306.624L302.424 127.04ZM387.307 100.16V113.84H368.467V170H351.427V113.84H332.707V100.16H387.307ZM458.252 100.16V170H440.972V140.6H415.172V170H397.892V100.16H415.172V126.8H440.972V100.16H458.252ZM531.639 100.16L507.759 142.88V170H490.599V143.36L466.719 100.16H485.199L499.119 127.64L512.919 100.16H531.639Z" fill="#E9E9E9"/>
<path d="M167.48 111.752H189.944V118.92H176.696V126.088H189.048V133.256H176.696V141.768H189.944V149H167.48V111.752ZM239.659 111.752V149H231.211V131.912C231.211 130.76 231.232 129.437 231.275 127.944C231.318 126.451 231.36 125.064 231.403 123.784C231.488 122.461 231.552 121.48 231.595 120.84H231.403L222.443 149H213.867L205.227 120.776H204.971C205.056 121.416 205.142 122.397 205.227 123.72C205.312 125.043 205.376 126.472 205.419 128.008C205.504 129.501 205.547 130.888 205.547 132.168V149H197.355V111.752H209.707L218.347 139.336H218.539L227.435 111.752H239.659ZM261.466 111.752C266.415 111.752 270.063 112.776 272.41 114.824C274.757 116.872 275.93 119.752 275.93 123.464C275.93 125.128 275.674 126.728 275.162 128.264C274.65 129.757 273.818 131.101 272.666 132.296C271.557 133.491 270.042 134.429 268.122 135.112C266.245 135.795 263.919 136.136 261.146 136.136H257.946V149H248.73V111.752H261.466ZM260.186 128.904C262.106 128.904 263.663 128.477 264.858 127.624C266.053 126.771 266.65 125.427 266.65 123.592C266.65 122.056 266.202 120.904 265.306 120.136C264.453 119.325 263.087 118.92 261.21 118.92H257.946V128.904H260.186ZM276.25 149L289.37 111.56H301.018L314.266 149H304.41L301.914 141H288.666L286.17 149H276.25ZM297.626 126.088C297.413 125.448 297.157 124.616 296.858 123.592C296.559 122.525 296.261 121.437 295.962 120.328C295.663 119.219 295.407 118.28 295.194 117.512C295.066 118.28 294.853 119.219 294.554 120.328C294.255 121.437 293.957 122.525 293.658 123.592C293.359 124.659 293.125 125.491 292.954 126.088L290.65 133.576H299.866L297.626 126.088ZM342.897 111.752V119.048H332.849V149H323.761V119.048H313.777V111.752H342.897ZM380.735 111.752V149H371.519V133.32H357.759V149H348.543V111.752H357.759V125.96H371.519V111.752H380.735ZM419.874 111.752L407.138 134.536V149H397.986V134.792L385.25 111.752H395.106L402.53 126.408L409.89 111.752H419.874Z" fill="#A6A6A6"/>
<rect x="63" y="83.0361" width="99" height="24" rx="8" transform="rotate(-16.4509 63 83.0361)" fill="#FF61F6"/>
<path d="M80.8315 92.8438C80.9878 93.3733 81.0179 93.8565 80.9218 94.2936C80.8256 94.7308 80.6086 95.1118 80.2708 95.4368C79.9384 95.7518 79.4845 95.9943 78.9091 96.1642C78.0728 96.4111 77.3637 96.3828 76.7819 96.0791C76.2055 95.7655 75.7995 95.2097 75.5639 94.4118L74.3371 90.2571L75.3499 89.9581L76.5631 94.0667C76.7284 94.6268 76.9934 95.0157 77.358 95.2333C77.728 95.4411 78.1815 95.4656 78.7186 95.3071C79.2403 95.153 79.5924 94.8905 79.7748 94.5197C79.9627 94.1389 79.9762 93.6761 79.8153 93.1314L78.5953 88.9998L79.6081 88.7007L80.8315 92.8438ZM86.7056 86.6049L88.6494 93.1879L87.418 93.5516L82.5036 89.197L82.4576 89.2106C82.4947 89.3081 82.5375 89.4247 82.5859 89.5606C82.6344 89.6964 82.684 89.8361 82.7347 89.9796C82.7854 90.1231 82.8323 90.2678 82.8753 90.4135C82.9238 90.5494 82.9662 90.6787 83.0024 90.8014L84.1035 94.5303L83.1943 94.7988L81.2504 88.2157L82.4819 87.8521L87.3779 92.187L87.4124 92.1769C87.3799 92.0947 87.3427 91.9972 87.3011 91.8844C87.2571 91.7639 87.211 91.6358 87.1625 91.4999C87.1217 91.3618 87.0798 91.2199 87.0368 91.0741C86.9937 90.9283 86.9518 90.7864 86.911 90.6483L85.7964 86.8734L86.7056 86.6049ZM94.6746 87.7427C94.8943 88.487 94.9397 89.1492 94.8108 89.7295C94.6895 90.3075 94.4054 90.8001 93.9584 91.2074C93.5191 91.6124 92.9312 91.9236 92.1947 92.1411L90.3648 92.6814L88.4209 86.0984L90.4234 85.5071C91.4976 85.1899 92.3963 85.2249 93.1195 85.6119C93.8481 85.989 94.3665 86.6993 94.6746 87.7427ZM93.6375 88.0865C93.4019 87.2886 93.0295 86.7479 92.5204 86.4645C92.009 86.1734 91.3774 86.1388 90.6255 86.3608L89.6703 86.6429L91.1179 91.5456L91.9466 91.301C92.7675 91.0585 93.3163 90.6713 93.593 90.1392C93.8696 89.607 93.8844 88.9228 93.6375 88.0865ZM95.1194 84.1205L98.8942 83.0058L99.1355 83.823L96.3619 84.642L96.9362 86.5869L99.5372 85.8189L99.7751 86.6245L97.1741 87.3925L97.8232 89.5907L100.597 88.7717L100.838 89.5888L97.0632 90.7035L95.1194 84.1205ZM102.097 82.0602C102.956 81.8065 103.64 81.7795 104.15 81.9794C104.665 82.1694 105.013 82.5713 105.194 83.1851C105.319 83.6071 105.323 84.0021 105.206 84.3702C105.09 84.7383 104.828 85.0658 104.42 85.353L107.113 87.7359L105.974 88.0723L103.609 85.8678L102.424 86.2179L103.212 88.8879L102.211 89.1835L100.267 82.6005L102.097 82.0602ZM103.095 85.1438C103.548 85.0101 103.873 84.8138 104.072 84.5549C104.271 84.296 104.311 83.9671 104.194 83.5681C104.069 83.1461 103.851 82.8892 103.541 82.7975C103.228 82.698 102.822 82.7219 102.323 82.8692L101.506 83.1105L102.186 85.4122L103.095 85.1438ZM111.5 84.4638C111.611 84.8397 111.613 85.2018 111.507 85.55C111.399 85.8905 111.189 86.1946 110.876 86.4622C110.571 86.7275 110.169 86.9338 109.67 87.0811C109.386 87.1649 109.126 87.2293 108.889 87.2742C108.652 87.3192 108.43 87.347 108.225 87.3576C108.025 87.3582 107.827 87.3501 107.63 87.3332L107.358 86.4125C107.68 86.4591 108.018 86.472 108.37 86.4513C108.728 86.4207 109.08 86.3544 109.425 86.2525C109.832 86.1324 110.137 85.9506 110.34 85.707C110.541 85.4558 110.594 85.169 110.499 84.8468C110.433 84.6243 110.323 84.461 110.167 84.3569C110.011 84.2527 109.802 84.1809 109.54 84.1415C109.284 84.0921 108.973 84.0586 108.609 84.0409C108.2 84.0116 107.843 83.9587 107.537 83.8822C107.236 83.7959 106.982 83.658 106.776 83.4686C106.578 83.277 106.427 83.0047 106.322 82.6517C106.209 82.2681 106.214 81.9164 106.336 81.5966C106.456 81.2692 106.665 80.9866 106.962 80.7488C107.266 80.5087 107.633 80.3253 108.063 80.1984C108.424 80.0919 108.772 80.0306 109.11 80.0144C109.455 79.996 109.778 80.0047 110.081 80.0405L109.993 80.9297C109.681 80.8885 109.377 80.878 109.083 80.8982C108.794 80.9084 108.527 80.9498 108.281 81.0223C107.905 81.1333 107.626 81.3034 107.443 81.5325C107.268 81.7593 107.225 82.0223 107.313 82.3215C107.379 82.544 107.49 82.7074 107.646 82.8115C107.802 82.9156 108.006 82.9847 108.258 83.0187C108.517 83.0505 108.822 83.0813 109.173 83.1112C109.557 83.1397 109.906 83.191 110.22 83.2652C110.534 83.3393 110.797 83.47 111.011 83.6571C111.23 83.8343 111.393 84.1032 111.5 84.4638ZM115.538 78.0913L115.793 78.9545L113.836 79.5322L115.525 85.252L114.524 85.5477L112.835 79.8278L110.878 80.4056L110.623 79.5424L115.538 78.0913ZM117.307 84.7258L117.842 77.3857L118.982 77.0493L123.384 82.9315L122.279 83.2577L121.069 81.5755L118.549 82.3197L118.412 84.3996L117.307 84.7258ZM119.345 79.1692C119.275 79.0731 119.2 78.9744 119.12 78.8729C119.045 78.7614 118.971 78.65 118.896 78.5386C118.829 78.4249 118.762 78.3112 118.695 78.1975C118.701 78.3293 118.703 78.4622 118.7 78.5963C118.704 78.7205 118.704 78.8496 118.702 78.9837C118.698 79.1101 118.691 79.2415 118.681 79.3778L118.577 81.398L120.522 80.8237L119.345 79.1692ZM127.75 74.4851L129.694 81.0681L128.463 81.4317L123.548 77.0772L123.502 77.0908C123.54 77.1883 123.582 77.3049 123.631 77.4408C123.679 77.5766 123.729 77.7163 123.78 77.8598C123.83 78.0033 123.877 78.1479 123.92 78.2937C123.969 78.4296 124.011 78.5589 124.047 78.6816L125.148 82.4105L124.239 82.6789L122.295 76.0959L123.527 75.7323L128.423 80.0672L128.457 80.057C128.425 79.9749 128.388 79.8774 128.346 79.7646C128.302 79.6441 128.256 79.5159 128.207 79.3801C128.167 79.242 128.125 79.1 128.082 78.9543C128.039 78.8085 127.997 78.6666 127.956 78.5284L126.841 74.7536L127.75 74.4851ZM135.719 75.6229C135.939 76.3671 135.985 77.0294 135.856 77.6097C135.734 78.1877 135.45 78.6803 135.003 79.0876C134.564 79.4925 133.976 79.8038 133.24 80.0213L131.41 80.5616L129.466 73.9786L131.468 73.3873C132.542 73.0701 133.441 73.105 134.164 73.4921C134.893 73.8692 135.411 74.5794 135.719 75.6229ZM134.682 75.9667C134.447 75.1687 134.074 74.6281 133.565 74.3446C133.054 74.0535 132.422 74.019 131.67 74.241L130.715 74.5231L132.163 79.4258L132.991 79.1811C133.812 78.9387 134.361 78.5514 134.638 78.0193C134.914 77.4872 134.929 76.803 134.682 75.9667ZM137.682 78.7094L137.512 78.134L138.206 77.7289L136.714 72.6766L135.915 72.7249L135.738 72.1264L138.247 71.3856L138.424 71.984L137.727 72.3775L139.219 77.4299L140.021 77.3931L140.191 77.9686L137.682 78.7094ZM144.969 69.4009L146.912 75.9839L145.681 76.3475L140.767 71.993L140.721 72.0066C140.758 72.104 140.801 72.2207 140.849 72.3565C140.897 72.4924 140.947 72.6321 140.998 72.7756C141.048 72.9191 141.095 73.0637 141.138 73.2095C141.187 73.3453 141.229 73.4746 141.265 73.5974L142.367 77.3262L141.457 77.5947L139.513 71.0117L140.745 70.6481L145.641 74.983L145.675 74.9728C145.643 74.8907 145.606 74.7932 145.564 74.6804C145.52 74.5599 145.474 74.4317 145.426 74.2959C145.385 74.1578 145.343 74.0158 145.3 73.87C145.257 73.7243 145.215 73.5823 145.174 73.4442L144.059 69.6694L144.969 69.4009ZM153.807 73.6102C153.513 73.8304 153.178 74.0377 152.802 74.2323C152.431 74.4169 152.027 74.5737 151.59 74.7029C150.907 74.9045 150.286 74.9501 149.728 74.8396C149.168 74.7215 148.684 74.4516 148.275 74.0299C147.873 73.5983 147.564 73.018 147.349 72.2891C147.154 71.6293 147.112 71.0077 147.223 70.4243C147.335 69.8409 147.604 69.3275 148.032 68.8841C148.46 68.4408 149.046 68.1092 149.791 67.8895C150.174 67.7762 150.549 67.7031 150.914 67.6702C151.28 67.6373 151.624 67.6442 151.947 67.6908L151.843 68.6098C151.536 68.5587 151.231 68.5444 150.929 68.5668C150.635 68.587 150.334 68.6424 150.027 68.733C149.513 68.8848 149.107 69.1213 148.81 69.4427C148.521 69.7617 148.341 70.1402 148.27 70.5782C148.204 71.0063 148.245 71.4697 148.392 71.9684C148.639 72.8047 149.026 73.3788 149.552 73.6906C150.077 74.0025 150.724 74.0451 151.491 73.8186C151.714 73.7529 151.928 73.6729 152.134 73.5788C152.337 73.477 152.512 73.3755 152.657 73.2742L152.133 71.5018L150.476 71.9912L150.235 71.1741L152.859 70.3993L153.807 73.6102Z" fill="white"/>
<rect x="239" y="197.603" width="101" height="24" rx="8" transform="rotate(-16.4509 239 197.603)" fill="#0076B2"/>
<path d="M256.831 207.41C256.988 207.94 257.018 208.423 256.922 208.86C256.826 209.297 256.609 209.678 256.271 210.003C255.938 210.318 255.485 210.561 254.909 210.731C254.073 210.978 253.364 210.949 252.782 210.646C252.206 210.332 251.799 209.776 251.564 208.978L250.337 204.824L251.35 204.525L252.563 208.633C252.728 209.193 252.993 209.582 253.358 209.8C253.728 210.008 254.181 210.032 254.719 209.874C255.24 209.72 255.592 209.457 255.775 209.086C255.963 208.705 255.976 208.243 255.815 207.698L254.595 203.566L255.608 203.267L256.831 207.41ZM262.616 206.378C262.727 206.754 262.73 207.116 262.624 207.464C262.516 207.805 262.306 208.109 261.993 208.376C261.687 208.642 261.285 208.848 260.787 208.995C260.503 209.079 260.242 209.143 260.005 209.188C259.768 209.233 259.547 209.261 259.342 209.272C259.142 209.272 258.943 209.264 258.747 209.247L258.475 208.327C258.797 208.373 259.135 208.386 259.487 208.365C259.845 208.335 260.197 208.268 260.542 208.167C260.949 208.046 261.254 207.865 261.457 207.621C261.658 207.37 261.711 207.083 261.616 206.761C261.55 206.538 261.439 206.375 261.284 206.271C261.128 206.167 260.919 206.095 260.657 206.056C260.4 206.006 260.09 205.973 259.726 205.955C259.317 205.926 258.96 205.873 258.653 205.796C258.353 205.71 258.099 205.572 257.893 205.383C257.695 205.191 257.543 204.919 257.439 204.566C257.326 204.182 257.331 203.83 257.453 203.511C257.573 203.183 257.782 202.901 258.079 202.663C258.383 202.423 258.75 202.239 259.18 202.112C259.54 202.006 259.889 201.945 260.226 201.929C260.571 201.91 260.895 201.919 261.198 201.955L261.11 202.844C260.797 202.803 260.494 202.792 260.2 202.812C259.911 202.823 259.644 202.864 259.398 202.936C259.022 203.047 258.743 203.217 258.56 203.447C258.385 203.673 258.342 203.936 258.43 204.236C258.496 204.458 258.607 204.621 258.763 204.726C258.919 204.83 259.122 204.899 259.374 204.933C259.634 204.965 259.939 204.995 260.29 205.025C260.674 205.054 261.023 205.105 261.337 205.179C261.65 205.253 261.914 205.384 262.128 205.571C262.347 205.748 262.51 206.017 262.616 206.378ZM262.465 201.242L266.24 200.128L266.481 200.945L263.708 201.764L264.282 203.709L266.883 202.941L267.121 203.746L264.52 204.514L265.169 206.713L267.943 205.894L268.184 206.711L264.409 207.825L262.465 201.242ZM269.443 199.182C270.302 198.928 270.986 198.901 271.496 199.101C272.011 199.291 272.359 199.693 272.54 200.307C272.665 200.729 272.669 201.124 272.552 201.492C272.436 201.86 272.174 202.188 271.766 202.475L274.459 204.858L273.32 205.194L270.955 202.99L269.769 203.34L270.558 206.01L269.557 206.305L267.613 199.722L269.443 199.182ZM270.441 202.266C270.893 202.132 271.219 201.936 271.418 201.677C271.617 201.418 271.657 201.089 271.54 200.69C271.415 200.268 271.197 200.011 270.887 199.919C270.574 199.82 270.168 199.844 269.669 199.991L268.852 200.232L269.532 202.534L270.441 202.266ZM277.987 203.816L277.817 203.241L278.511 202.836L277.019 197.783L276.22 197.832L276.043 197.233L278.552 196.492L278.729 197.091L278.032 197.484L279.524 202.537L280.326 202.5L280.496 203.075L277.987 203.816ZM285.274 194.508L287.217 201.091L285.986 201.454L281.072 197.1L281.026 197.113C281.063 197.211 281.105 197.327 281.154 197.463C281.202 197.599 281.252 197.739 281.303 197.882C281.353 198.026 281.4 198.17 281.443 198.316C281.492 198.452 281.534 198.581 281.57 198.704L282.671 202.433L281.762 202.701L279.818 196.118L281.05 195.755L285.946 200.09L285.98 200.079C285.948 199.997 285.911 199.9 285.869 199.787C285.825 199.667 285.779 199.538 285.73 199.403C285.69 199.264 285.648 199.122 285.605 198.977C285.562 198.831 285.52 198.689 285.479 198.551L284.364 194.776L285.274 194.508ZM291.178 192.764L291.433 193.627L289.476 194.205L291.165 199.925L290.164 200.22L288.475 194.501L286.519 195.078L286.264 194.215L291.178 192.764ZM292.148 192.478L295.922 191.363L296.164 192.18L293.39 192.999L293.964 194.944L296.565 194.176L296.803 194.982L294.202 195.75L294.851 197.948L297.625 197.129L297.866 197.946L294.091 199.061L292.148 192.478ZM299.125 190.417C299.984 190.164 300.669 190.137 301.178 190.337C301.693 190.527 302.041 190.929 302.222 191.542C302.347 191.964 302.351 192.359 302.234 192.727C302.118 193.096 301.856 193.423 301.449 193.71L304.142 196.093L303.002 196.43L300.637 194.225L299.452 194.575L300.24 197.245L299.239 197.541L297.295 190.958L299.125 190.417ZM300.123 193.501C300.576 193.367 300.901 193.171 301.1 192.912C301.299 192.653 301.34 192.324 301.222 191.925C301.097 191.503 300.88 191.247 300.569 191.155C300.256 191.055 299.85 191.079 299.351 191.226L298.534 191.468L299.214 193.77L300.123 193.501ZM306.613 195.363L302.31 189.477L303.415 189.151L306.113 193.034C306.284 193.275 306.425 193.484 306.536 193.66C306.654 193.833 306.762 194.001 306.86 194.164C306.846 193.977 306.842 193.765 306.848 193.53C306.853 193.295 306.862 193.054 306.873 192.809L307.029 188.084L308.145 187.754L307.718 195.037L306.613 195.363ZM310.513 194.212L310.343 193.636L311.037 193.231L309.545 188.179L308.746 188.227L308.569 187.629L311.078 186.888L311.255 187.486L310.558 187.88L312.049 192.932L312.852 192.896L313.022 193.471L310.513 194.212ZM312.344 186.514L316.119 185.399L316.36 186.217L313.587 187.036L314.161 188.981L316.762 188.213L317 189.018L314.399 189.786L315.048 191.984L317.822 191.165L318.063 191.982L314.288 193.097L312.344 186.514ZM322.057 186.261C321.971 186.111 321.886 185.965 321.803 185.823C321.717 185.673 321.638 185.534 321.567 185.405C321.501 185.266 321.443 185.141 321.394 185.031C321.415 185.158 321.431 185.299 321.443 185.454C321.461 185.599 321.472 185.75 321.477 185.907C321.49 186.062 321.498 186.218 321.503 186.375L321.622 190.931L320.529 191.254L316.836 185.188L317.825 184.896L319.957 188.47C320.055 188.633 320.158 188.811 320.265 189.005C320.37 189.191 320.47 189.374 320.565 189.554C320.658 189.727 320.737 189.883 320.803 190.022C320.791 189.867 320.776 189.705 320.759 189.535C320.75 189.362 320.737 189.178 320.721 188.983C320.713 188.785 320.706 188.578 320.701 188.363L320.576 184.083L321.554 183.795L323.807 187.484C323.903 187.639 324.001 187.802 324.101 187.972C324.202 188.143 324.297 188.311 324.388 188.476C324.476 188.633 324.552 188.778 324.616 188.909C324.595 188.782 324.579 188.628 324.567 188.448C324.556 188.268 324.545 188.091 324.536 187.919C324.535 187.744 324.531 187.604 324.524 187.497L324.351 182.969L325.329 182.68L325.512 189.783L324.419 190.106L322.057 186.261ZM331.759 185.961C331.87 186.337 331.872 186.699 331.767 187.048C331.659 187.388 331.448 187.692 331.135 187.96C330.83 188.225 330.428 188.431 329.929 188.579C329.645 188.662 329.385 188.727 329.148 188.772C328.911 188.817 328.69 188.845 328.484 188.855C328.284 188.856 328.086 188.848 327.889 188.831L327.617 187.91C327.939 187.957 328.277 187.97 328.63 187.949C328.988 187.918 329.339 187.852 329.684 187.75C330.091 187.63 330.396 187.448 330.599 187.205C330.8 186.953 330.853 186.667 330.758 186.344C330.693 186.122 330.582 185.959 330.426 185.854C330.27 185.75 330.061 185.679 329.799 185.639C329.543 185.59 329.233 185.556 328.869 185.538C328.46 185.509 328.102 185.456 327.796 185.38C327.495 185.293 327.242 185.156 327.036 184.966C326.837 184.775 326.686 184.502 326.582 184.149C326.468 183.766 326.473 183.414 326.595 183.094C326.716 182.767 326.924 182.484 327.221 182.246C327.525 182.006 327.892 181.823 328.322 181.696C328.683 181.589 329.032 181.528 329.369 181.512C329.714 181.494 330.038 181.502 330.34 181.538L330.252 182.427C329.94 182.386 329.636 182.376 329.342 182.396C329.053 182.406 328.786 182.447 328.54 182.52C328.164 182.631 327.885 182.801 327.703 183.03C327.528 183.257 327.484 183.52 327.573 183.819C327.638 184.042 327.749 184.205 327.905 184.309C328.061 184.413 328.265 184.482 328.517 184.516C328.776 184.548 329.082 184.579 329.432 184.609C329.816 184.637 330.165 184.689 330.479 184.763C330.793 184.837 331.057 184.968 331.27 185.155C331.489 185.332 331.652 185.601 331.759 185.961Z" fill="white"/>
<rect x="37.1637" y="198.868" width="109" height="24" rx="8" transform="rotate(-16.4509 37.1637 198.868)" fill="#31A8FF"/>
<path d="M48.5583 206.072L52.3332 204.958L52.5745 205.775L49.8009 206.594L50.3752 208.539L52.9762 207.771L53.214 208.576L50.6131 209.344L51.2621 211.543L54.0358 210.724L54.277 211.541L50.5022 212.655L48.5583 206.072ZM60.4614 202.558L62.4053 209.141L61.4616 209.419L60.2416 205.288C60.1962 205.134 60.1464 204.965 60.092 204.781C60.0431 204.587 59.9986 204.408 59.9587 204.245C59.9188 204.082 59.8914 203.96 59.8764 203.881L59.8419 203.892L59.4475 210.014L58.5729 210.272L54.9127 205.335L54.8782 205.345C54.9009 205.421 54.9409 205.543 54.9985 205.71C55.0537 205.868 55.1135 206.043 55.1778 206.232C55.2421 206.422 55.3003 206.605 55.3524 206.781L56.5588 210.867L55.6496 211.135L53.7058 204.552L55.0983 204.141L58.6547 208.897L58.6777 208.89L59.0689 202.969L60.4614 202.558ZM64.079 201.489C64.8999 201.247 65.5636 201.234 66.0699 201.452C66.5762 201.669 66.9245 202.1 67.1148 202.745C67.21 203.067 67.2424 203.375 67.212 203.667C67.1816 203.96 67.0862 204.23 66.9257 204.477C66.7653 204.725 66.5425 204.945 66.2573 205.138C65.97 205.323 65.6191 205.476 65.2048 205.599L64.3877 205.84L65.1251 208.337L64.1239 208.633L62.18 202.05L64.079 201.489ZM64.8599 204.812C65.3587 204.665 65.7239 204.461 65.9557 204.201C66.1951 203.938 66.2457 203.573 66.1075 203.105C65.9875 202.698 65.7791 202.43 65.4823 202.301C65.1833 202.164 64.7844 202.169 64.2857 202.317L63.4226 202.572L64.1464 205.023L64.8599 204.812ZM68.577 207.318L69.1123 199.978L70.2516 199.642L74.6536 205.524L73.5488 205.85L72.3389 204.168L69.8185 204.912L69.6819 206.992L68.577 207.318ZM70.6149 201.762C70.5448 201.665 70.4697 201.567 70.3897 201.465C70.3151 201.354 70.2405 201.242 70.1659 201.131C70.0989 201.017 70.032 200.903 69.9651 200.79C69.9706 200.922 69.9723 201.055 69.9702 201.189C69.9735 201.313 69.9741 201.442 69.972 201.576C69.9676 201.702 69.9605 201.834 69.9507 201.97L69.8466 203.99L71.7916 203.416L70.6149 201.762ZM77.4621 197.538L77.717 198.401L75.7605 198.978L77.4495 204.698L76.4482 204.994L74.7592 199.274L72.8027 199.852L72.5479 198.989L77.4621 197.538ZM83.6106 195.722L85.5544 202.305L84.5531 202.601L83.6662 199.597L80.4898 200.535L81.3767 203.539L80.3755 203.834L78.4316 197.251L79.4329 196.956L80.2417 199.695L83.4181 198.757L82.6093 196.018L83.6106 195.722ZM89.9131 193.861L88.8929 198.541L89.6473 201.096L88.623 201.399L87.8822 198.89L84.4695 195.468L85.5743 195.142L88.1248 197.805L88.8313 194.18L89.9131 193.861ZM100.506 190.733L102.45 197.316L101.506 197.595L100.286 193.463C100.241 193.31 100.191 193.141 100.137 192.957C100.088 192.763 100.043 192.584 100.003 192.42C99.9634 192.257 99.936 192.136 99.921 192.057L99.8865 192.067L99.4921 198.189L98.6175 198.448L94.9573 193.51L94.9228 193.52C94.9455 193.597 94.9855 193.719 95.0431 193.885C95.0983 194.044 95.1581 194.218 95.2224 194.408C95.2867 194.597 95.3449 194.78 95.397 194.957L96.6034 199.042L95.6942 199.311L93.7504 192.728L95.143 192.317L98.6993 197.072L98.7223 197.065L99.1135 191.144L100.506 190.733ZM103.317 197.06L103.852 189.72L104.991 189.384L109.393 195.266L108.289 195.592L107.079 193.91L104.558 194.654L104.422 196.734L103.317 197.06ZM105.355 191.503C105.285 191.407 105.21 191.309 105.13 191.207C105.055 191.096 104.98 190.984 104.906 190.873C104.839 190.759 104.772 190.645 104.705 190.532C104.71 190.664 104.712 190.797 104.71 190.931C104.713 191.055 104.714 191.184 104.712 191.318C104.707 191.444 104.7 191.576 104.691 191.712L104.586 193.732L106.531 193.158L105.355 191.503ZM110.204 187.869C111.025 187.627 111.688 187.615 112.195 187.832C112.701 188.05 113.049 188.481 113.24 189.125C113.335 189.447 113.367 189.755 113.337 190.047C113.307 190.34 113.211 190.61 113.051 190.858C112.89 191.105 112.667 191.325 112.382 191.518C112.095 191.703 111.744 191.857 111.33 191.979L110.513 192.22L111.25 194.718L110.249 195.013L108.305 188.43L110.204 187.869ZM110.985 191.192C111.484 191.045 111.849 190.841 112.081 190.581C112.32 190.318 112.371 189.953 112.232 189.485C112.112 189.078 111.904 188.811 111.607 188.681C111.308 188.544 110.909 188.55 110.411 188.697L109.547 188.952L110.271 191.403L110.985 191.192ZM115.857 186.2C116.678 185.958 117.342 185.945 117.848 186.163C118.354 186.38 118.703 186.811 118.893 187.456C118.988 187.778 119.021 188.085 118.99 188.378C118.96 188.671 118.864 188.941 118.704 189.188C118.543 189.436 118.321 189.656 118.035 189.849C117.748 190.034 117.397 190.187 116.983 190.31L116.166 190.551L116.903 193.048L115.902 193.344L113.958 186.761L115.857 186.2ZM116.638 189.523C117.137 189.376 117.502 189.172 117.734 188.912C117.973 188.649 118.024 188.284 117.886 187.816C117.766 187.409 117.557 187.141 117.26 187.012C116.961 186.875 116.563 186.88 116.064 187.027L115.201 187.282L115.925 189.734L116.638 189.523ZM121.129 191.8L120.959 191.225L121.653 190.82L120.161 185.768L119.362 185.816L119.186 185.217L121.694 184.476L121.871 185.075L121.174 185.468L122.666 190.521L123.468 190.484L123.638 191.059L121.129 191.8ZM128.416 182.492L130.36 189.075L129.128 189.438L124.214 185.084L124.168 185.097C124.205 185.195 124.248 185.312 124.296 185.447C124.345 185.583 124.394 185.723 124.445 185.866C124.496 186.01 124.542 186.155 124.586 186.3C124.634 186.436 124.676 186.566 124.713 186.688L125.814 190.417L124.904 190.686L122.961 184.103L124.192 183.739L129.088 188.074L129.123 188.064C129.09 187.982 129.053 187.884 129.011 187.771C128.967 187.651 128.921 187.523 128.873 187.387C128.832 187.249 128.79 187.107 128.747 186.961C128.704 186.815 128.662 186.673 128.621 186.535L127.507 182.76L128.416 182.492ZM137.254 186.701C136.961 186.921 136.626 187.129 136.249 187.323C135.878 187.508 135.474 187.665 135.037 187.794C134.354 187.995 133.734 188.041 133.175 187.931C132.615 187.812 132.131 187.543 131.723 187.121C131.32 186.689 131.011 186.109 130.796 185.38C130.601 184.72 130.559 184.099 130.67 183.515C130.782 182.932 131.051 182.418 131.479 181.975C131.907 181.532 132.493 181.2 133.238 180.98C133.621 180.867 133.996 180.794 134.362 180.761C134.727 180.728 135.071 180.735 135.394 180.782L135.29 181.701C134.983 181.65 134.678 181.635 134.376 181.658C134.082 181.678 133.781 181.733 133.474 181.824C132.96 181.976 132.555 182.212 132.257 182.534C131.968 182.853 131.788 183.231 131.717 183.669C131.651 184.097 131.692 184.561 131.84 185.059C132.087 185.896 132.473 186.47 132.999 186.782C133.525 187.093 134.171 187.136 134.938 186.909C135.161 186.844 135.375 186.764 135.581 186.67C135.784 186.568 135.959 186.466 136.104 186.365L135.581 184.593L133.923 185.082L133.682 184.265L136.306 183.49L137.254 186.701Z" fill="white"/>
<rect x="435.836" y="165.337" width="93" height="24" rx="8" transform="rotate(-16.4509 435.836 165.337)" fill="#A259FF"/>
<path d="M453.668 175.145C453.824 175.674 453.854 176.158 453.758 176.595C453.662 177.032 453.445 177.413 453.107 177.738C452.775 178.053 452.321 178.295 451.745 178.465C450.909 178.712 450.2 178.684 449.618 178.38C449.042 178.067 448.636 177.511 448.4 176.713L447.173 172.558L448.186 172.259L449.399 176.368C449.565 176.928 449.829 177.317 450.194 177.534C450.564 177.742 451.018 177.767 451.555 177.608C452.076 177.454 452.428 177.192 452.611 176.821C452.799 176.44 452.812 175.977 452.651 175.433L451.431 171.301L452.444 171.002L453.668 175.145ZM459.452 174.112C459.563 174.488 459.566 174.851 459.46 175.199C459.352 175.539 459.142 175.843 458.829 176.111C458.523 176.376 458.121 176.583 457.623 176.73C457.339 176.814 457.078 176.878 456.841 176.923C456.604 176.968 456.383 176.996 456.178 177.006C455.978 177.007 455.779 176.999 455.583 176.982L455.311 176.061C455.633 176.108 455.971 176.121 456.323 176.1C456.681 176.069 457.033 176.003 457.378 175.901C457.785 175.781 458.09 175.599 458.293 175.356C458.494 175.104 458.547 174.818 458.452 174.496C458.386 174.273 458.275 174.11 458.12 174.006C457.964 173.901 457.755 173.83 457.493 173.79C457.236 173.741 456.926 173.707 456.562 173.69C456.153 173.66 455.796 173.607 455.489 173.531C455.189 173.445 454.935 173.307 454.729 173.117C454.531 172.926 454.38 172.653 454.275 172.3C454.162 171.917 454.167 171.565 454.289 171.245C454.409 170.918 454.618 170.635 454.915 170.397C455.219 170.157 455.586 169.974 456.016 169.847C456.376 169.741 456.725 169.679 457.063 169.663C457.407 169.645 457.731 169.653 458.034 169.689L457.946 170.578C457.633 170.537 457.33 170.527 457.036 170.547C456.747 170.557 456.48 170.599 456.234 170.671C455.858 170.782 455.579 170.952 455.396 171.181C455.221 171.408 455.178 171.671 455.266 171.97C455.332 172.193 455.443 172.356 455.599 172.46C455.755 172.564 455.959 172.633 456.21 172.667C456.47 172.699 456.775 172.73 457.126 172.76C457.51 172.788 457.859 172.84 458.173 172.914C458.486 172.988 458.75 173.119 458.964 173.306C459.183 173.483 459.346 173.752 459.452 174.112ZM459.301 168.977L463.076 167.862L463.318 168.679L460.544 169.498L461.118 171.443L463.719 170.675L463.957 171.481L461.356 172.249L462.005 174.447L464.779 173.628L465.02 174.445L461.245 175.56L459.301 168.977ZM466.279 166.917C467.138 166.663 467.822 166.636 468.332 166.836C468.847 167.026 469.195 167.428 469.376 168.042C469.501 168.464 469.505 168.859 469.388 169.227C469.272 169.595 469.01 169.922 468.602 170.209L471.295 172.592L470.156 172.929L467.791 170.724L466.606 171.074L467.394 173.744L466.393 174.04L464.449 167.457L466.279 166.917ZM467.277 170C467.73 169.867 468.055 169.67 468.254 169.411C468.453 169.153 468.493 168.824 468.376 168.425C468.251 168.003 468.033 167.746 467.723 167.654C467.41 167.555 467.004 167.578 466.505 167.726L465.688 167.967L466.368 170.269L467.277 170ZM475.204 164.281C476.025 164.039 476.689 164.026 477.195 164.244C477.701 164.461 478.05 164.892 478.24 165.537C478.335 165.859 478.368 166.167 478.337 166.459C478.307 166.752 478.211 167.022 478.051 167.269C477.89 167.517 477.668 167.737 477.383 167.93C477.095 168.115 476.744 168.268 476.33 168.391L475.513 168.632L476.25 171.129L475.249 171.425L473.305 164.842L475.204 164.281ZM475.985 167.604C476.484 167.457 476.849 167.253 477.081 166.993C477.32 166.73 477.371 166.365 477.233 165.897C477.113 165.49 476.904 165.222 476.607 165.093C476.308 164.956 475.91 164.961 475.411 165.109L474.548 165.363L475.272 167.815L475.985 167.604ZM478.958 163.173L482.733 162.058L482.975 162.875L480.201 163.694L480.775 165.639L483.376 164.871L483.614 165.677L481.013 166.445L481.662 168.643L484.436 167.824L484.677 168.641L480.902 169.756L478.958 163.173ZM485.936 161.112C486.795 160.859 487.479 160.832 487.989 161.032C488.504 161.222 488.852 161.623 489.033 162.237C489.158 162.659 489.162 163.054 489.045 163.422C488.929 163.79 488.667 164.118 488.259 164.405L490.952 166.788L489.813 167.124L487.448 164.92L486.263 165.27L487.051 167.94L486.05 168.236L484.106 161.653L485.936 161.112ZM486.934 164.196C487.387 164.062 487.712 163.866 487.911 163.607C488.11 163.348 488.15 163.019 488.033 162.62C487.908 162.198 487.69 161.941 487.38 161.85C487.067 161.75 486.661 161.774 486.162 161.921L485.345 162.163L486.025 164.464L486.934 164.196ZM495.339 163.516C495.45 163.892 495.452 164.254 495.347 164.602C495.239 164.943 495.028 165.247 494.715 165.514C494.41 165.78 494.008 165.986 493.509 166.133C493.225 166.217 492.965 166.281 492.728 166.326C492.491 166.371 492.269 166.399 492.064 166.41C491.864 166.41 491.666 166.402 491.469 166.385L491.197 165.465C491.519 165.511 491.857 165.524 492.209 165.503C492.567 165.473 492.919 165.407 493.264 165.305C493.671 165.185 493.976 165.003 494.179 164.759C494.38 164.508 494.433 164.221 494.338 163.899C494.272 163.676 494.162 163.513 494.006 163.409C493.85 163.305 493.641 163.233 493.379 163.194C493.123 163.144 492.812 163.111 492.449 163.093C492.039 163.064 491.682 163.011 491.376 162.934C491.075 162.848 490.821 162.71 490.615 162.521C490.417 162.329 490.266 162.057 490.161 161.704C490.048 161.32 490.053 160.969 490.175 160.649C490.295 160.321 490.504 160.039 490.801 159.801C491.105 159.561 491.472 159.377 491.902 159.251C492.263 159.144 492.611 159.083 492.949 159.067C493.294 159.048 493.617 159.057 493.92 159.093L493.832 159.982C493.52 159.941 493.216 159.93 492.922 159.95C492.633 159.961 492.366 160.002 492.12 160.074C491.744 160.185 491.465 160.356 491.282 160.585C491.107 160.811 491.064 161.074 491.153 161.374C491.218 161.596 491.329 161.76 491.485 161.864C491.641 161.968 491.845 162.037 492.097 162.071C492.356 162.103 492.661 162.133 493.012 162.163C493.396 162.192 493.745 162.243 494.059 162.317C494.373 162.391 494.636 162.522 494.85 162.709C495.069 162.886 495.232 163.155 495.339 163.516ZM502.026 159.927C502.225 160.602 502.289 161.23 502.219 161.81C502.146 162.382 501.925 162.877 501.556 163.294C501.187 163.712 500.653 164.024 499.955 164.23C499.265 164.434 498.647 164.462 498.103 164.314C497.559 164.166 497.096 163.869 496.714 163.423C496.34 162.974 496.053 162.412 495.853 161.737C495.656 161.07 495.594 160.45 495.667 159.878C495.748 159.304 495.977 158.806 496.353 158.387C496.73 157.967 497.263 157.655 497.954 157.451C498.652 157.245 499.269 157.217 499.806 157.367C500.342 157.517 500.798 157.817 501.172 158.265C501.544 158.706 501.828 159.26 502.026 159.927ZM496.916 161.436C497.065 161.943 497.266 162.367 497.517 162.71C497.774 163.043 498.084 163.273 498.446 163.399C498.807 163.518 499.221 163.508 499.689 163.37C500.165 163.23 500.518 163.013 500.748 162.719C500.986 162.424 501.119 162.068 501.146 161.651C501.178 161.224 501.119 160.754 500.967 160.24C500.731 159.442 500.38 158.874 499.913 158.537C499.444 158.191 498.872 158.118 498.197 158.318C497.737 158.454 497.387 158.669 497.149 158.965C496.911 159.26 496.775 159.618 496.74 160.037C496.705 160.456 496.764 160.922 496.916 161.436ZM507.914 154.622L509.858 161.205L508.627 161.569L503.712 157.215L503.666 157.228C503.703 157.326 503.746 157.442 503.795 157.578C503.843 157.714 503.893 157.854 503.943 157.997C503.994 158.141 504.041 158.285 504.084 158.431C504.133 158.567 504.175 158.696 504.211 158.819L505.312 162.548L504.403 162.816L502.459 156.233L503.691 155.87L508.587 160.205L508.621 160.194C508.589 160.112 508.552 160.015 508.51 159.902C508.466 159.781 508.42 159.653 508.371 159.517C508.331 159.379 508.289 159.237 508.246 159.092C508.203 158.946 508.161 158.804 508.12 158.666L507.005 154.891L507.914 154.622ZM510.722 160.95L511.257 153.61L512.397 153.274L516.799 159.156L515.694 159.482L514.484 157.8L511.963 158.544L511.827 160.624L510.722 160.95ZM512.76 155.394C512.69 155.298 512.615 155.199 512.535 155.097C512.46 154.986 512.385 154.875 512.311 154.763C512.244 154.65 512.177 154.536 512.11 154.422C512.115 154.554 512.117 154.687 512.115 154.821C512.118 154.945 512.119 155.074 512.117 155.208C512.112 155.335 512.105 155.466 512.096 155.602L511.991 157.623L513.936 157.048L512.76 155.394ZM521.076 155.916C521.187 156.292 521.19 156.654 521.084 157.002C520.976 157.343 520.765 157.647 520.452 157.915C520.147 158.18 519.745 158.386 519.246 158.533C518.962 158.617 518.702 158.682 518.465 158.727C518.228 158.772 518.007 158.799 517.801 158.81C517.601 158.811 517.403 158.802 517.206 158.786L516.934 157.865C517.257 157.911 517.594 157.924 517.947 157.904C518.305 157.873 518.656 157.807 519.002 157.705C519.408 157.585 519.713 157.403 519.917 157.159C520.118 156.908 520.171 156.621 520.075 156.299C520.01 156.077 519.899 155.913 519.743 155.809C519.587 155.705 519.378 155.633 519.116 155.594C518.86 155.544 518.55 155.511 518.186 155.493C517.777 155.464 517.419 155.411 517.113 155.335C516.812 155.248 516.559 155.11 516.353 154.921C516.154 154.729 516.003 154.457 515.899 154.104C515.786 153.72 515.79 153.369 515.913 153.049C516.033 152.722 516.241 152.439 516.538 152.201C516.843 151.961 517.21 151.778 517.639 151.651C518 151.544 518.349 151.483 518.686 151.467C519.031 151.448 519.355 151.457 519.657 151.493L519.569 152.382C519.257 152.341 518.954 152.33 518.659 152.351C518.37 152.361 518.103 152.402 517.858 152.475C517.482 152.586 517.202 152.756 517.02 152.985C516.845 153.212 516.802 153.475 516.89 153.774C516.956 153.996 517.066 154.16 517.222 154.264C517.378 154.368 517.582 154.437 517.834 154.471C518.094 154.503 518.399 154.534 518.75 154.564C519.133 154.592 519.482 154.643 519.796 154.718C520.11 154.792 520.374 154.922 520.587 155.109C520.807 155.287 520.969 155.556 521.076 155.916Z" fill="white"/>
<rect x="391" y="67.1161" width="124" height="24" rx="8" transform="rotate(-16.4509 391 67.1161)" fill="#FED6CA"/>
<path d="M404.42 73.722C405.011 73.5475 405.51 73.4712 405.916 73.4928C406.321 73.5069 406.648 73.6106 406.897 73.804C407.146 73.9974 407.324 74.2782 407.433 74.6465C407.51 74.9074 407.525 75.1534 407.476 75.3846C407.435 75.6136 407.338 75.8216 407.185 76.0086C407.037 76.1858 406.843 76.3347 406.604 76.4555L406.614 76.4901C406.911 76.4523 407.182 76.4642 407.425 76.5258C407.666 76.5797 407.876 76.6971 408.055 76.8779C408.231 77.0511 408.367 77.2988 408.462 77.621C408.647 78.2502 408.565 78.7916 408.216 79.2452C407.871 79.6889 407.334 80.0184 406.606 80.2336L404.338 80.9031L402.395 74.3201L404.42 73.722ZM405.341 76.5029C405.84 76.3557 406.172 76.1659 406.337 75.9337C406.5 75.6938 406.531 75.4051 406.431 75.0675C406.332 74.7299 406.135 74.5168 405.842 74.4281C405.549 74.3395 405.153 74.3688 404.655 74.5161L403.63 74.8185L404.225 76.8326L405.341 76.5029ZM406.325 79.4531C406.816 79.3081 407.147 79.1019 407.319 78.8345C407.497 78.5647 407.531 78.2419 407.42 77.8659C407.321 77.5284 407.12 77.2999 406.818 77.1806C406.515 77.0613 406.104 77.0786 405.582 77.2327L404.442 77.5691L405.105 79.8133L406.325 79.4531ZM408.441 72.5346L412.216 71.42L412.457 72.2371L409.684 73.0561L410.258 75.0011L412.859 74.2331L413.097 75.0387L410.496 75.8067L411.145 78.0049L413.919 77.1859L414.16 78.003L410.385 79.1177L408.441 72.5346ZM418.768 69.4854L420.711 76.0684L419.71 76.3641L418.823 73.3603L415.647 74.2983L416.534 77.302L415.532 77.5977L413.589 71.0147L414.59 70.719L415.399 73.4581L418.575 72.5202L417.766 69.7811L418.768 69.4854ZM421.57 75.8148L422.106 68.4748L423.245 68.1383L427.647 74.0205L426.542 74.3467L425.332 72.6645L422.812 73.4088L422.675 75.4886L421.57 75.8148ZM423.608 70.2582C423.538 70.1622 423.463 70.0634 423.383 69.9619C423.308 69.8504 423.234 69.739 423.159 69.6276C423.092 69.5139 423.025 69.4002 422.958 69.2865C422.964 69.4183 422.966 69.5513 422.963 69.6853C422.967 69.8095 422.967 69.9386 422.965 70.0727C422.961 70.1991 422.954 70.3305 422.944 70.4669L422.84 72.4871L424.785 71.9127L423.608 70.2582ZM429.785 73.3891L425.482 67.5028L426.587 67.1765L429.285 71.0594C429.456 71.3008 429.597 71.5094 429.707 71.6854C429.825 71.8591 429.934 72.0273 430.032 72.1902C430.018 72.0024 430.014 71.7909 430.019 71.5557C430.025 71.3205 430.033 71.0803 430.044 70.8351L430.201 66.1095L431.317 65.7798L430.89 73.0629L429.785 73.3891ZM433.685 72.2377L433.515 71.6622L434.208 71.2572L432.717 66.2048L431.918 66.2531L431.741 65.6546L434.25 64.9138L434.426 65.5123L433.729 65.9058L435.221 70.9581L436.024 70.9214L436.194 71.4968L433.685 72.2377ZM442.354 66.0868C442.553 66.762 442.618 67.3894 442.547 67.9692C442.474 68.5413 442.253 69.0361 441.884 69.4536C441.515 69.8712 440.982 70.1831 440.284 70.3892C439.593 70.5931 438.976 70.6211 438.431 70.4731C437.887 70.3252 437.424 70.0282 437.042 69.5821C436.668 69.1337 436.381 68.572 436.182 67.8968C435.985 67.2293 435.923 66.6095 435.996 66.0374C436.076 65.463 436.305 64.966 436.681 64.5461C437.058 64.1263 437.591 63.8145 438.282 63.6106C438.98 63.4044 439.597 63.3764 440.134 63.5266C440.67 63.6769 441.126 63.9761 441.5 64.4245C441.872 64.8652 442.157 65.4193 442.354 66.0868ZM437.244 67.5956C437.394 68.102 437.594 68.5266 437.845 68.8695C438.102 69.2024 438.412 69.4321 438.775 69.5586C439.135 69.6774 439.549 69.6677 440.017 69.5295C440.493 69.389 440.846 69.1721 441.076 68.8789C441.314 68.5834 441.447 68.2273 441.474 67.8105C441.507 67.3839 441.447 66.9135 441.295 66.3994C441.059 65.6015 440.708 65.0337 440.242 64.696C439.773 64.3507 439.2 64.2778 438.525 64.4771C438.065 64.6131 437.716 64.8288 437.478 65.1243C437.24 65.4198 437.103 65.7771 437.068 66.1961C437.034 66.6151 437.092 67.0816 437.244 67.5956ZM444.617 61.8524C445.477 61.5987 446.161 61.5718 446.671 61.7717C447.185 61.9616 447.534 62.3635 447.715 62.9773C447.839 63.3993 447.843 63.7943 447.727 64.1624C447.61 64.5305 447.348 64.8581 446.941 65.1452L449.634 67.5281L448.495 67.8645L446.13 65.66L444.944 66.0101L445.733 68.6801L444.731 68.9758L442.788 62.3928L444.617 61.8524ZM445.616 64.936C446.068 64.8023 446.394 64.606 446.593 64.3471C446.792 64.0882 446.832 63.7593 446.714 63.3603C446.59 62.9383 446.372 62.6815 446.061 62.5897C445.748 62.4903 445.343 62.5142 444.844 62.6614L444.027 62.9027L444.706 65.2045L445.616 64.936ZM449.746 67.4949L450.282 60.1548L451.421 59.8184L455.823 65.7006L454.718 66.0268L453.508 64.3446L450.988 65.0888L450.851 67.1686L449.746 67.4949ZM451.784 61.9383C451.714 61.8422 451.639 61.7434 451.559 61.6419C451.485 61.5305 451.41 61.4191 451.335 61.3076C451.268 61.1939 451.201 61.0802 451.135 60.9665C451.14 61.0984 451.142 61.2313 451.14 61.3654C451.143 61.4896 451.144 61.6187 451.141 61.7528C451.137 61.8792 451.13 62.0106 451.12 62.1469L451.016 64.1671L452.961 63.5928L451.784 61.9383ZM455.736 58.5693L457.432 64.3122L460.366 63.4456L460.614 64.2858L456.678 65.448L454.735 58.865L455.736 58.5693ZM463.874 63.3233L464.409 55.9832L465.549 55.6468L469.951 61.529L468.846 61.8552L467.636 60.173L465.115 60.9172L464.979 62.9971L463.874 63.3233ZM465.912 57.7667C465.842 57.6706 465.767 57.5718 465.687 57.4704C465.612 57.3589 465.537 57.2475 465.463 57.1361C465.396 57.0224 465.329 56.9087 465.262 56.795C465.268 56.9268 465.269 57.0597 465.267 57.1938C465.27 57.318 465.271 57.4471 465.269 57.5812C465.265 57.7076 465.257 57.839 465.248 57.9753L465.143 59.9955L467.088 59.4212L465.912 57.7667ZM474.317 53.0826L476.261 59.6656L475.03 60.0292L470.115 55.6747L470.069 55.6883C470.106 55.7858 470.149 55.9024 470.198 56.0382C470.246 56.1741 470.296 56.3138 470.346 56.4573C470.397 56.6008 470.444 56.7454 470.487 56.8912C470.535 57.0271 470.578 57.1564 470.614 57.2791L471.715 61.0079L470.806 61.2764L468.862 54.6934L470.093 54.3298L474.99 58.6647L475.024 58.6545C474.991 58.5724 474.954 58.4749 474.913 58.3621C474.869 58.2416 474.823 58.1134 474.774 57.9776C474.733 57.8395 474.691 57.6975 474.648 57.5518C474.605 57.406 474.563 57.264 474.523 57.1259L473.408 53.3511L474.317 53.0826ZM477.125 59.4106L477.66 52.0705L478.799 51.7341L483.201 57.6163L482.097 57.9425L480.887 56.2603L478.366 57.0045L478.23 59.0843L477.125 59.4106ZM479.163 53.854C479.092 53.7579 479.017 53.6591 478.937 53.5576C478.863 53.4462 478.788 53.3348 478.714 53.2233C478.647 53.1096 478.58 52.9959 478.513 52.8822C478.518 53.0141 478.52 53.147 478.518 53.2811C478.521 53.4052 478.522 53.5344 478.52 53.6685C478.515 53.7949 478.508 53.9263 478.498 54.0626L478.394 56.0828L480.339 55.5085L479.163 53.854ZM483.114 50.485L484.81 56.2279L487.745 55.3613L487.993 56.2015L484.057 57.3637L482.113 50.7807L483.114 50.485ZM491.189 48.1006L490.169 52.7811L490.923 55.3361L489.899 55.6385L489.158 53.1296L485.746 49.708L486.85 49.3818L489.401 52.0445L490.107 48.42L491.189 48.1006ZM497.403 51.4459C497.514 51.8218 497.516 52.1839 497.411 52.5321C497.303 52.8726 497.092 53.1767 496.779 53.4443C496.474 53.7096 496.072 53.9159 495.573 54.0632C495.289 54.147 495.029 54.2114 494.792 54.2563C494.555 54.3013 494.334 54.3291 494.128 54.3397C493.928 54.3403 493.73 54.3322 493.533 54.3153L493.261 53.3946C493.584 53.4412 493.921 53.4541 494.274 53.4334C494.632 53.4028 494.983 53.3365 495.328 53.2346C495.735 53.1145 496.04 52.9327 496.243 52.6891C496.445 52.4379 496.497 52.1511 496.402 51.8289C496.337 51.6064 496.226 51.4431 496.07 51.339C495.914 51.2348 495.705 51.1631 495.443 51.1236C495.187 51.0742 494.877 51.0407 494.513 51.023C494.104 50.9937 493.746 50.9408 493.44 50.8644C493.139 50.778 492.886 50.6401 492.68 50.4507C492.481 50.2591 492.33 49.9868 492.226 49.6338C492.112 49.2502 492.117 48.8985 492.239 48.5787C492.36 48.2513 492.568 47.9687 492.865 47.7309C493.169 47.4908 493.537 47.3074 493.966 47.1805C494.327 47.074 494.676 47.0127 495.013 46.9965C495.358 46.9781 495.682 46.9868 495.984 47.0226L495.896 47.9118C495.584 47.8706 495.28 47.8601 494.986 47.8803C494.697 47.8905 494.43 47.9319 494.184 48.0044C493.808 48.1154 493.529 48.2855 493.347 48.5146C493.172 48.7414 493.128 49.0044 493.217 49.3036C493.282 49.5261 493.393 49.6895 493.549 49.7936C493.705 49.8977 493.909 49.9668 494.161 50.0008C494.42 50.0326 494.726 50.0634 495.077 50.0933C495.46 50.1218 495.809 50.1731 496.123 50.2473C496.437 50.3214 496.701 50.4521 496.914 50.6392C497.134 50.8164 497.296 51.0853 497.403 51.4459ZM498.77 53.0192L498.6 52.4437L499.294 52.0387L497.802 46.9863L497.003 47.0346L496.826 46.4362L499.335 45.6953L499.512 46.2938L498.814 46.6873L500.306 51.7396L501.109 51.7029L501.279 52.2783L498.77 53.0192ZM505.967 48.917C506.078 49.293 506.081 49.6551 505.975 50.0033C505.867 50.3438 505.656 50.6478 505.343 50.9155C505.038 51.1808 504.636 51.3871 504.137 51.5344C503.853 51.6182 503.593 51.6826 503.356 51.7275C503.119 51.7725 502.898 51.8002 502.692 51.8108C502.492 51.8115 502.294 51.8034 502.097 51.7864L501.825 50.8657C502.148 50.9123 502.485 50.9253 502.838 50.9046C503.196 50.874 503.547 50.8077 503.893 50.7057C504.299 50.5856 504.604 50.4038 504.808 50.1603C505.009 49.909 505.062 49.6223 504.966 49.3001C504.901 49.0776 504.79 48.9142 504.634 48.8101C504.478 48.706 504.269 48.6342 504.007 48.5948C503.751 48.5454 503.441 48.5119 503.077 48.4942C502.668 48.4648 502.31 48.4119 502.004 48.3355C501.703 48.2492 501.45 48.1113 501.244 47.9219C501.045 47.7302 500.894 47.4579 500.79 47.105C500.677 46.7214 500.681 46.3697 500.804 46.0499C500.924 45.7225 501.132 45.4398 501.429 45.2021C501.734 44.962 502.101 44.7785 502.53 44.6517C502.891 44.5452 503.24 44.4839 503.577 44.4677C503.922 44.4493 504.246 44.4579 504.548 44.4937L504.46 45.383C504.148 45.3418 503.845 45.3313 503.55 45.3515C503.261 45.3617 502.994 45.4031 502.749 45.4756C502.373 45.5866 502.093 45.7566 501.911 45.9857C501.736 46.2126 501.693 46.4756 501.781 46.7748C501.847 46.9973 501.957 47.1606 502.113 47.2647C502.269 47.3689 502.473 47.4379 502.725 47.472C502.985 47.5038 503.29 47.5346 503.641 47.5645C504.024 47.5929 504.373 47.6443 504.687 47.7184C505.001 47.7926 505.265 47.9232 505.478 48.1103C505.698 48.2875 505.86 48.5564 505.967 48.917Z" fill="white"/>
</svg>
