<svg width="36" height="36" viewBox="0 0 36 36" fill="none" xmlns="http://www.w3.org/2000/svg">
<path opacity="0.5" d="M28.5 9H7.5C6.30653 9 5.16193 9.47411 4.31802 10.318C3.47411 11.1619 3 12.3065 3 13.5V17.58L13.2555 21H22.7445L33 17.58V13.5C33 12.3065 32.5259 11.1619 31.682 10.318C30.8381 9.47411 29.6935 9 28.5 9Z" fill="black"/>
<path d="M15 9V7.5H21V9H24V7.5C24 6.70435 23.6839 5.94129 23.1213 5.37868C22.5587 4.81607 21.7956 4.5 21 4.5H15C14.2044 4.5 13.4413 4.81607 12.8787 5.37868C12.3161 5.94129 12 6.70435 12 7.5V9H15ZM13.2555 21L3 17.58V27C3.00119 28.1931 3.47568 29.337 4.31934 30.1807C5.16299 31.0243 6.30689 31.4988 7.5 31.5H28.5C29.6931 31.4988 30.837 31.0243 31.6807 30.1807C32.5243 29.337 32.9988 28.1931 33 27V17.58L22.7445 21H13.2555Z" fill="black"/>
</svg>
