<svg width="376" height="260" viewBox="0 0 376 260" fill="none" xmlns="http://www.w3.org/2000/svg">
<g clip-path="url(#clip0_93_313)">
<g opacity="0.7" filter="url(#filter0_ddddii_93_313)">
<path d="M74.1995 90H53.0795V84.4113L58.7332 81.8119V51.789L53.0795 49.1897V43.601H74.1995V49.1897L68.5458 51.789V81.8119L74.1995 84.4113V90ZM92.5688 90.6498C88.6264 90.6498 85.3989 89.1119 82.8861 86.0359C80.4167 82.9167 79.182 78.3461 79.182 72.3242C79.182 66.259 80.4384 61.6667 82.9511 58.5474C85.4638 55.4282 88.7564 53.8685 92.8288 53.8685C94.5184 53.8685 96.013 54.1068 97.3127 54.5834C98.6124 55.0166 99.7171 55.6231 100.627 56.403C101.58 57.1828 102.382 58.0709 103.031 59.0673H103.356C103.226 58.3742 103.075 57.3777 102.901 56.078C102.728 54.735 102.641 53.3703 102.641 51.984V40.6117H112.324V90H104.916L103.031 85.3861H102.641C102.035 86.3392 101.255 87.2273 100.302 88.0505C99.3922 88.8303 98.3091 89.4585 97.0528 89.935C95.7964 90.4116 94.3018 90.6498 92.5688 90.6498ZM95.948 82.9167C98.6341 82.9167 100.519 82.1369 101.602 80.5772C102.685 78.9743 103.248 76.5915 103.291 73.4289V72.3892C103.291 68.9233 102.75 66.2806 101.667 64.461C100.627 62.6415 98.6774 61.7317 95.8181 61.7317C93.6952 61.7317 92.0273 62.6631 90.8142 64.526C89.6012 66.3456 88.9947 68.9883 88.9947 72.4542C88.9947 75.92 89.6012 78.541 90.8142 80.3173C92.0273 82.0502 93.7386 82.9167 95.948 82.9167ZM137.071 53.8685C140.364 53.8685 143.18 54.4967 145.519 55.7531C147.902 57.0095 149.743 58.829 151.043 61.2118C152.342 63.5946 152.992 66.5189 152.992 69.9847V74.6636H130.118C130.204 77.393 131.006 79.5375 132.522 81.0971C134.082 82.6567 136.226 83.4366 138.956 83.4366C141.252 83.4366 143.331 83.2199 145.194 82.7867C147.057 82.3102 148.985 81.5953 150.978 80.6422V88.1154C149.245 88.9819 147.404 89.6101 145.454 90C143.548 90.4332 141.23 90.6498 138.501 90.6498C134.948 90.6498 131.807 90 129.078 88.7003C126.349 87.3573 124.204 85.3428 122.645 82.6567C121.085 79.9707 120.305 76.5915 120.305 72.5191C120.305 68.3601 120.998 64.9159 122.385 62.1866C123.814 59.4139 125.785 57.3344 128.298 55.9481C130.811 54.5617 133.735 53.8685 137.071 53.8685ZM137.136 60.7569C135.273 60.7569 133.714 61.3634 132.457 62.5765C131.244 63.7895 130.529 65.6741 130.313 68.2302H143.894C143.894 66.8005 143.635 65.5225 143.115 64.3961C142.638 63.2697 141.902 62.3815 140.905 61.7317C139.909 61.0818 138.652 60.7569 137.136 60.7569ZM175.4 53.8036C180.166 53.8036 183.805 54.8433 186.318 56.9228C188.874 58.959 190.152 62.0999 190.152 66.3456V90H183.393L181.509 85.1911H181.249C180.253 86.4475 179.213 87.4873 178.13 88.3104C177.09 89.1335 175.877 89.7184 174.491 90.065C173.148 90.4549 171.48 90.6498 169.487 90.6498C167.407 90.6498 165.523 90.2599 163.833 89.4801C162.187 88.657 160.887 87.4223 159.934 85.776C158.981 84.0864 158.504 81.9636 158.504 79.4075C158.504 75.6384 159.826 72.8657 162.468 71.0895C165.111 69.2699 169.075 68.2735 174.361 68.1002L180.534 67.9052V66.3456C180.534 64.4827 180.036 63.118 179.04 62.2516C178.086 61.3851 176.743 60.9519 175.01 60.9519C173.278 60.9519 171.588 61.2118 169.942 61.7317C168.295 62.2082 166.649 62.8148 165.003 63.5513L161.819 56.9878C163.725 55.9914 165.826 55.2116 168.122 54.6484C170.462 54.0852 172.888 53.8036 175.4 53.8036ZM176.765 73.6889C173.646 73.7755 171.48 74.3387 170.267 75.3785C169.054 76.4182 168.447 77.7829 168.447 79.4725C168.447 80.9455 168.88 82.0069 169.747 82.6567C170.613 83.2633 171.74 83.5665 173.126 83.5665C175.205 83.5665 176.96 82.96 178.39 81.747C179.819 80.4906 180.534 78.736 180.534 76.4832V73.5589L176.765 73.6889ZM215.009 82.9167C216.093 82.9167 217.132 82.8084 218.129 82.5918C219.125 82.3751 220.122 82.1152 221.118 81.8119V89.0252C220.078 89.4585 218.779 89.8267 217.219 90.13C215.703 90.4766 214.035 90.6498 212.215 90.6498C210.092 90.6498 208.186 90.3033 206.497 89.6101C204.85 88.9169 203.529 87.7255 202.532 86.0359C201.579 84.303 201.103 81.9202 201.103 78.8876V61.7967H196.489V57.7026L201.818 54.4534L204.612 46.9802H210.785V54.5184H220.728V61.7967H210.785V78.8876C210.785 80.2306 211.175 81.2487 211.955 81.9419C212.735 82.5918 213.753 82.9167 215.009 82.9167ZM237.923 54.5184V90H228.24V54.5184H237.923ZM233.114 40.6117C234.543 40.6117 235.778 40.9583 236.818 41.6514C237.858 42.3013 238.378 43.536 238.378 45.3556C238.378 47.1318 237.858 48.3665 236.818 49.0597C235.778 49.7529 234.543 50.0994 233.114 50.0994C231.641 50.0994 230.384 49.7529 229.345 49.0597C228.348 48.3665 227.85 47.1318 227.85 45.3556C227.85 43.536 228.348 42.3013 229.345 41.6514C230.384 40.9583 231.641 40.6117 233.114 40.6117ZM280.272 72.1942C280.272 75.1402 279.861 77.7612 279.038 80.0574C278.258 82.3535 277.11 84.303 275.593 85.906C274.12 87.4656 272.323 88.657 270.2 89.4801C268.077 90.2599 265.672 90.6498 262.986 90.6498C260.517 90.6498 258.221 90.2599 256.098 89.4801C254.019 88.657 252.221 87.4656 250.704 85.906C249.188 84.303 247.997 82.3535 247.13 80.0574C246.307 77.7612 245.895 75.1402 245.895 72.1942C245.895 68.2518 246.589 64.9376 247.975 62.2516C249.361 59.5222 251.354 57.4427 253.954 56.013C256.553 54.5834 259.629 53.8685 263.181 53.8685C266.517 53.8685 269.463 54.5834 272.019 56.013C274.575 57.4427 276.59 59.5222 278.063 62.2516C279.536 64.9376 280.272 68.2518 280.272 72.1942ZM255.773 72.1942C255.773 74.5337 256.011 76.5049 256.488 78.1078C257.008 79.6674 257.809 80.8588 258.892 81.682C259.975 82.4618 261.383 82.8517 263.116 82.8517C264.849 82.8517 266.236 82.4618 267.275 81.682C268.358 80.8588 269.138 79.6674 269.615 78.1078C270.135 76.5049 270.395 74.5337 270.395 72.1942C270.395 69.8548 270.135 67.9052 269.615 66.3456C269.138 64.786 268.358 63.6162 267.275 62.8364C266.192 62.0566 264.784 61.6667 263.051 61.6667C260.495 61.6667 258.632 62.5548 257.463 64.3311C256.336 66.064 255.773 68.685 255.773 72.1942ZM308.42 53.8685C312.232 53.8685 315.287 54.9083 317.583 56.9878C319.879 59.024 321.027 62.3166 321.027 66.8655V90H311.344V69.2699C311.344 66.7138 310.889 64.8076 309.979 63.5513C309.07 62.2516 307.618 61.6017 305.625 61.6017C302.68 61.6017 300.665 62.6198 299.582 64.656C298.499 66.6489 297.957 69.5298 297.957 73.299V90H288.275V54.5184H295.683L296.983 59.0673H297.502C298.282 57.8543 299.235 56.8795 300.362 56.143C301.488 55.3632 302.744 54.8 304.131 54.4534C305.517 54.0635 306.947 53.8685 308.42 53.8685Z" fill="url(#paint0_linear_93_313)"/>
</g>
<rect x="40" y="152" width="63" height="24" rx="8" transform="rotate(-14.7729 40 152)" fill="#0076B2"/>
<path d="M56.4371 163.286C56.537 163.665 56.5291 164.027 56.4132 164.372C56.2953 164.709 56.076 165.007 55.7552 165.265C55.4422 165.521 55.0343 165.716 54.5315 165.848C54.2453 165.924 53.9831 165.981 53.7449 166.019C53.5067 166.057 53.2848 166.078 53.0792 166.082C52.8793 166.077 52.6812 166.063 52.4849 166.041L52.2401 165.112C52.561 165.168 52.8979 165.191 53.251 165.181C53.6097 165.161 53.9631 165.105 54.3112 165.013C54.7212 164.905 55.0314 164.732 55.2418 164.495C55.4501 164.249 55.5115 163.964 55.4258 163.639C55.3666 163.415 55.2607 163.249 55.1079 163.14C54.9552 163.031 54.7485 162.953 54.4879 162.906C54.2329 162.849 53.9239 162.807 53.5606 162.778C53.1526 162.737 52.7967 162.674 52.4929 162.588C52.1948 162.493 51.9455 162.348 51.7451 162.153C51.5524 161.955 51.4091 161.679 51.3153 161.323C51.2133 160.936 51.2281 160.585 51.3599 160.269C51.4896 159.945 51.7063 159.669 52.01 159.44C52.3214 159.208 52.6936 159.036 53.1268 158.922C53.4904 158.826 53.841 158.775 54.1785 158.768C54.5238 158.76 54.8471 158.778 55.1485 158.823L55.0347 159.709C54.7236 159.659 54.4206 159.639 54.1258 159.651C53.8367 159.653 53.5684 159.686 53.3209 159.752C52.9418 159.852 52.6577 160.013 52.4685 160.237C52.287 160.459 52.236 160.72 52.3156 161.022C52.3747 161.246 52.4807 161.413 52.6334 161.521C52.7862 161.63 52.988 161.705 53.2388 161.746C53.4974 161.786 53.8016 161.826 54.1514 161.866C54.5342 161.905 54.8813 161.967 55.1929 162.05C55.5044 162.134 55.7643 162.272 55.9725 162.465C56.1863 162.649 56.3412 162.922 56.4371 163.286ZM57.7574 164.898L57.6044 164.318L58.3097 163.934L56.9664 158.84L56.1663 158.865L56.0072 158.261L58.5367 157.594L58.6958 158.198L57.9875 158.571L59.3308 163.664L60.134 163.651L60.2869 164.231L57.7574 164.898ZM64.0369 156.144L64.2664 157.014L62.2938 157.534L63.8145 163.301L62.805 163.567L61.2843 157.801L59.3117 158.321L59.0822 157.45L64.0369 156.144ZM65.0144 155.886L68.8203 154.882L69.0375 155.706L66.2411 156.444L66.7582 158.405L69.3806 157.713L69.5948 158.525L66.9724 159.217L67.5568 161.433L70.3532 160.696L70.5705 161.52L66.7646 162.523L65.0144 155.886ZM77.0153 152.721L78.7655 159.359L77.814 159.609L76.7156 155.444C76.6748 155.289 76.6299 155.119 76.5809 154.933C76.5377 154.738 76.4985 154.558 76.4634 154.393C76.4283 154.229 76.4044 154.107 76.3917 154.028L76.3569 154.037L75.7835 160.145L74.9016 160.377L71.3876 155.335L71.3528 155.344C71.3732 155.421 71.4097 155.544 71.4623 155.712C71.5129 155.873 71.5676 156.048 71.6263 156.24C71.685 156.431 71.7379 156.616 71.7848 156.794L72.871 160.913L71.9544 161.155L70.2041 154.518L71.6081 154.147L75.0237 159.005L75.0469 158.999L75.6113 153.092L77.0153 152.721ZM79.6396 159.128L80.3895 151.807L81.5383 151.504L85.7661 157.512L84.6522 157.806L83.4921 156.089L80.9509 156.759L80.7535 158.834L79.6396 159.128ZM81.8393 153.633C81.772 153.535 81.6999 153.434 81.6229 153.331C81.5516 153.217 81.4803 153.104 81.4089 152.99C81.3454 152.874 81.2818 152.759 81.2182 152.643C81.2199 152.775 81.2177 152.908 81.2117 153.042C81.2113 153.166 81.2081 153.295 81.2021 153.429C81.194 153.555 81.1831 153.687 81.1693 153.823L81.0061 155.839L82.967 155.322L81.8393 153.633ZM86.7928 150.143C87.6205 149.925 88.2842 149.932 88.784 150.164C89.2837 150.396 89.6193 150.837 89.7906 151.487C89.8763 151.812 89.8997 152.12 89.8607 152.412C89.8218 152.703 89.7185 152.97 89.5509 153.213C89.3832 153.456 89.1541 153.669 88.8634 153.854C88.5708 154.03 88.2156 154.173 87.7978 154.284L86.974 154.501L87.638 157.019L86.6285 157.285L84.8783 150.648L86.7928 150.143ZM87.4762 153.487C87.979 153.355 88.35 153.162 88.5893 152.908C88.8364 152.653 88.8977 152.289 88.7732 151.817C88.6651 151.407 88.4646 151.133 88.1718 150.996C87.8769 150.85 87.4781 150.843 86.9753 150.976L86.105 151.206L86.7568 153.677L87.4762 153.487ZM95.8363 152.896C95.9362 153.275 95.9283 153.637 95.8124 153.982C95.6945 154.319 95.4752 154.617 95.1544 154.875C94.8414 155.132 94.4335 155.326 93.9307 155.459C93.6445 155.534 93.3823 155.591 93.1441 155.629C92.9059 155.667 92.684 155.688 92.4784 155.693C92.2785 155.688 92.0804 155.674 91.8841 155.651L91.6393 154.723C91.9602 154.779 92.2971 154.801 92.6502 154.791C93.0089 154.771 93.3623 154.715 93.7104 154.623C94.1204 154.515 94.4306 154.342 94.641 154.105C94.8493 153.86 94.9107 153.574 94.825 153.25C94.7658 153.025 94.6599 152.859 94.5071 152.75C94.3544 152.641 94.1477 152.564 93.8871 152.517C93.6321 152.46 93.3231 152.417 92.9598 152.389C92.5518 152.347 92.1959 152.284 91.8921 152.199C91.594 152.104 91.3447 151.958 91.1443 151.763C90.9516 151.566 90.8083 151.289 90.7145 150.933C90.6125 150.546 90.6273 150.195 90.7591 149.879C90.8888 149.555 91.1055 149.279 91.4092 149.05C91.7206 148.819 92.0928 148.646 92.526 148.532C92.8896 148.436 93.2402 148.385 93.5777 148.379C93.923 148.37 94.2463 148.388 94.5477 148.433L94.4339 149.319C94.1228 149.269 93.8198 149.25 93.525 149.261C93.2359 149.263 92.9676 149.297 92.7201 149.362C92.341 149.462 92.0569 149.624 91.8677 149.847C91.6862 150.069 91.6352 150.33 91.7148 150.632C91.7739 150.856 91.8799 151.023 92.0326 151.132C92.1854 151.24 92.3872 151.315 92.638 151.357C92.8966 151.396 93.2008 151.436 93.5506 151.476C93.9334 151.516 94.2805 151.577 94.5921 151.66C94.9036 151.744 95.1635 151.882 95.3717 152.075C95.5855 152.259 95.7404 152.532 95.8363 152.896Z" fill="white"/>
<rect x="130" y="127.456" width="78" height="24" rx="8" transform="rotate(13.128 130 127.456)" fill="#0076B2"/>
<path d="M139.699 142.701C139.698 142.528 139.696 142.359 139.694 142.194C139.693 142.022 139.693 141.862 139.695 141.714C139.706 141.561 139.717 141.424 139.729 141.303C139.684 141.424 139.629 141.555 139.564 141.696C139.508 141.831 139.443 141.967 139.369 142.106C139.304 142.247 139.234 142.387 139.161 142.526L137.015 146.548L135.905 146.289L135.687 139.19L136.692 139.424L136.782 143.585C136.787 143.775 136.788 143.981 136.786 144.202C136.785 144.416 136.782 144.625 136.775 144.828C136.771 145.024 136.763 145.199 136.752 145.353C136.817 145.212 136.885 145.063 136.954 144.907C137.031 144.753 137.111 144.586 137.194 144.408C137.284 144.232 137.38 144.049 137.482 143.86L139.486 140.076L140.479 140.307L140.617 144.628C140.624 144.81 140.629 145 140.632 145.198C140.635 145.396 140.635 145.589 140.633 145.777C140.632 145.958 140.626 146.121 140.617 146.267C140.662 146.146 140.723 146.004 140.802 145.842C140.881 145.679 140.959 145.521 141.036 145.366C141.121 145.214 141.187 145.089 141.234 144.993L143.319 140.97L144.312 141.201L140.965 147.469L139.855 147.21L139.699 142.701ZM143.401 148.037L143.537 147.453L144.34 147.443L145.537 142.313L144.818 141.96L144.96 141.352L147.508 141.947L147.366 142.554L146.565 142.552L145.369 147.683L146.085 148.047L145.948 148.631L143.401 148.037ZM150.651 142.68C151.524 142.883 152.132 143.198 152.477 143.623C152.831 144.042 152.935 144.564 152.79 145.187C152.69 145.616 152.498 145.961 152.215 146.224C151.932 146.486 151.543 146.642 151.047 146.69L152.213 150.092L151.056 149.822L150.087 146.738L148.883 146.457L148.251 149.168L147.234 148.931L148.793 142.246L150.651 142.68ZM149.997 145.854C150.457 145.961 150.837 145.952 151.138 145.825C151.438 145.698 151.636 145.431 151.731 145.026C151.831 144.598 151.768 144.267 151.543 144.034C151.32 143.793 150.955 143.613 150.449 143.495L149.619 143.302L149.074 145.639L149.997 145.854ZM154.75 143.636L158.584 144.53L158.39 145.36L155.574 144.703L155.113 146.678L157.754 147.294L157.563 148.112L154.922 147.496L154.402 149.728L157.218 150.385L157.025 151.214L153.191 150.32L154.75 143.636ZM159.977 144.855L163.799 145.746L163.605 146.576L160.801 145.922L160.277 148.166L162.907 148.779L162.713 149.609L160.084 148.995L159.435 151.777L158.418 151.54L159.977 144.855ZM166.743 146.433C167.615 146.636 168.224 146.951 168.568 147.376C168.922 147.795 169.027 148.317 168.881 148.94C168.781 149.369 168.59 149.714 168.307 149.977C168.024 150.239 167.634 150.395 167.138 150.443L168.304 153.845L167.147 153.575L166.179 150.491L164.975 150.21L164.342 152.921L163.326 152.684L164.885 145.999L166.743 146.433ZM166.089 149.607C166.548 149.714 166.929 149.704 167.229 149.577C167.53 149.45 167.728 149.184 167.822 148.779C167.922 148.351 167.86 148.02 167.635 147.787C167.412 147.546 167.047 147.366 166.54 147.248L165.711 147.055L165.166 149.392L166.089 149.607ZM168.418 153.872L172.507 147.752L173.664 148.022L174.589 155.311L173.467 155.049L173.245 152.989L170.686 152.392L169.54 154.133L168.418 153.872ZM172.933 150.045C172.92 149.927 172.903 149.804 172.884 149.676C172.874 149.543 172.864 149.409 172.854 149.275C172.852 149.143 172.85 149.011 172.848 148.879C172.788 148.997 172.724 149.113 172.656 149.229C172.597 149.338 172.534 149.451 172.466 149.567C172.4 149.674 172.329 149.785 172.253 149.899L171.165 151.604L173.14 152.065L172.933 150.045ZM183.876 150.429L182.317 157.113L181.359 156.89L182.337 152.694C182.374 152.539 182.414 152.367 182.457 152.18C182.51 151.987 182.56 151.81 182.606 151.648C182.652 151.486 182.688 151.367 182.714 151.291L182.679 151.283L179.314 156.413L178.426 156.206L177.68 150.105L177.645 150.097C177.627 150.175 177.601 150.3 177.569 150.473C177.539 150.639 177.505 150.82 177.467 151.016C177.43 151.213 177.39 151.401 177.348 151.58L176.38 155.729L175.457 155.513L177.016 148.829L178.43 149.159L179.176 155.05L179.199 155.055L182.462 150.099L183.876 150.429ZM185.621 150.836L189.454 151.73L189.261 152.559L186.444 151.903L185.984 153.878L188.625 154.493L188.434 155.312L185.793 154.696L185.272 156.928L188.089 157.585L187.895 158.414L184.062 157.52L185.621 150.836ZM193.74 157.83C193.651 158.212 193.474 158.528 193.211 158.779C192.949 159.022 192.615 159.182 192.211 159.261C191.815 159.341 191.363 159.322 190.857 159.203C190.568 159.136 190.31 159.064 190.082 158.986C189.854 158.908 189.648 158.823 189.464 158.731C189.289 158.633 189.121 158.528 188.958 158.416L189.176 157.481C189.433 157.68 189.721 157.858 190.037 158.014C190.364 158.164 190.702 158.28 191.053 158.362C191.466 158.458 191.821 158.451 192.118 158.339C192.417 158.22 192.604 157.997 192.681 157.67C192.733 157.444 192.718 157.247 192.634 157.08C192.549 156.912 192.403 156.746 192.195 156.583C191.996 156.413 191.743 156.231 191.435 156.036C191.094 155.809 190.809 155.586 190.581 155.369C190.362 155.145 190.209 154.9 190.124 154.634C190.046 154.369 190.048 154.057 190.132 153.699C190.223 153.309 190.4 153.006 190.665 152.788C190.931 152.563 191.252 152.42 191.627 152.36C192.011 152.301 192.42 152.323 192.857 152.425C193.223 152.51 193.557 152.629 193.858 152.781C194.167 152.935 194.444 153.103 194.69 153.283L194.174 154.013C193.923 153.823 193.664 153.664 193.398 153.537C193.142 153.403 192.889 153.307 192.64 153.249C192.258 153.16 191.931 153.17 191.659 153.279C191.395 153.39 191.228 153.597 191.157 153.901C191.104 154.127 191.12 154.324 191.204 154.491C191.288 154.659 191.431 154.819 191.634 154.973C191.844 155.129 192.094 155.307 192.384 155.506C192.704 155.72 192.982 155.937 193.219 156.156C193.455 156.376 193.62 156.62 193.713 156.888C193.816 157.15 193.825 157.464 193.74 157.83Z" fill="white"/>
<rect x="247" y="173" width="95" height="24" rx="8" transform="rotate(-7.62411 247 173)" fill="#0076B2"/>
<path d="M260.257 182.251C259.781 182.315 259.391 182.476 259.086 182.735C258.782 182.993 258.569 183.332 258.448 183.752C258.325 184.164 258.3 184.636 258.371 185.167C258.48 185.984 258.748 186.602 259.176 187.021C259.61 187.431 260.2 187.586 260.945 187.486C261.239 187.447 261.516 187.381 261.778 187.29C262.048 187.189 262.306 187.07 262.554 186.932L262.676 187.847C262.436 187.985 262.169 188.097 261.874 188.185C261.579 188.273 261.257 188.34 260.908 188.387C260.203 188.481 259.596 188.413 259.089 188.182C258.582 187.952 258.175 187.59 257.867 187.099C257.566 186.599 257.368 185.999 257.275 185.302C257.184 184.62 257.234 184 257.425 183.441C257.625 182.882 257.951 182.422 258.403 182.063C258.862 181.695 259.433 181.465 260.115 181.374C260.456 181.328 260.794 181.32 261.128 181.347C261.471 181.374 261.798 181.439 262.111 181.543L261.879 182.433C261.617 182.347 261.351 182.286 261.08 182.25C260.808 182.214 260.534 182.214 260.257 182.251ZM263.294 187.971L264.95 180.8L266.127 180.642L269.574 187.13L268.432 187.283L267.495 185.435L264.89 185.784L264.436 187.818L263.294 187.971ZM266.161 182.793C266.106 182.687 266.047 182.578 265.984 182.465C265.927 182.344 265.87 182.222 265.814 182.1C265.765 181.978 265.716 181.855 265.668 181.733C265.653 181.864 265.634 181.995 265.612 182.127C265.596 182.251 265.577 182.378 265.554 182.511C265.53 182.635 265.503 182.764 265.472 182.897L265.059 184.877L267.07 184.608L266.161 182.793ZM271.439 179.955C272.327 179.836 273.007 179.915 273.48 180.19C273.96 180.457 274.242 180.908 274.327 181.542C274.385 181.978 274.329 182.369 274.157 182.715C273.985 183.061 273.676 183.344 273.23 183.566L275.525 186.333L274.348 186.491L272.349 183.95L271.124 184.114L271.493 186.873L270.458 187.012L269.548 180.208L271.439 179.955ZM271.952 183.155C272.42 183.093 272.772 182.949 273.008 182.723C273.244 182.498 273.335 182.179 273.279 181.767C273.221 181.331 273.045 181.044 272.752 180.905C272.458 180.759 272.054 180.72 271.538 180.789L270.694 180.902L271.012 183.281L271.952 183.155ZM281.538 181.981C281.641 182.75 281.584 183.412 281.368 183.965C281.159 184.518 280.803 184.961 280.299 185.295C279.802 185.628 279.174 185.845 278.412 185.947L276.521 186.2L275.611 179.397L277.68 179.12C278.79 178.971 279.673 179.144 280.328 179.637C280.99 180.121 281.394 180.903 281.538 181.981ZM280.46 182.162C280.35 181.337 280.065 180.746 279.605 180.387C279.145 180.021 278.526 179.89 277.749 179.994L276.762 180.126L277.44 185.193L278.296 185.079C279.145 184.965 279.746 184.667 280.101 184.183C280.456 183.7 280.576 183.026 280.46 182.162ZM290.374 182.433C290.426 182.821 290.373 183.18 290.215 183.508C290.056 183.827 289.801 184.096 289.451 184.312C289.108 184.527 288.679 184.669 288.164 184.738C287.871 184.778 287.603 184.801 287.362 184.809C287.121 184.818 286.898 184.811 286.694 184.79C286.496 184.76 286.301 184.721 286.109 184.675L285.982 183.723C286.293 183.819 286.625 183.883 286.976 183.917C287.335 183.941 287.692 183.93 288.049 183.882C288.47 183.826 288.799 183.693 289.037 183.484C289.274 183.266 289.371 182.991 289.326 182.658C289.295 182.428 289.211 182.25 289.073 182.123C288.935 181.996 288.739 181.893 288.487 181.814C288.241 181.726 287.939 181.645 287.583 181.572C287.183 181.48 286.838 181.373 286.547 181.25C286.263 181.119 286.034 180.944 285.859 180.725C285.692 180.505 285.585 180.213 285.536 179.848C285.483 179.451 285.541 179.105 285.711 178.807C285.88 178.502 286.13 178.255 286.46 178.066C286.797 177.875 287.188 177.75 287.632 177.691C288.005 177.641 288.359 177.634 288.695 177.67C289.038 177.704 289.357 177.763 289.65 177.844L289.427 178.71C289.125 178.621 288.827 178.564 288.533 178.539C288.246 178.505 287.975 178.504 287.721 178.538C287.333 178.59 287.031 178.716 286.815 178.914C286.608 179.111 286.524 179.364 286.566 179.674C286.597 179.904 286.681 180.082 286.819 180.209C286.957 180.336 287.148 180.435 287.392 180.508C287.643 180.579 287.94 180.656 288.282 180.739C288.657 180.826 288.994 180.931 289.293 181.052C289.592 181.174 289.832 181.343 290.015 181.561C290.204 181.77 290.324 182.06 290.374 182.433ZM296.365 176.619L297.275 183.422L296.241 183.561L295.825 180.456L292.542 180.896L292.958 184L291.923 184.138L291.012 177.335L292.047 177.197L292.426 180.027L295.709 179.588L295.33 176.757L296.365 176.619ZM304.652 178.96C304.746 179.658 304.713 180.288 304.554 180.85C304.394 181.404 304.1 181.859 303.671 182.215C303.243 182.571 302.668 182.797 301.946 182.894C301.232 182.989 300.618 182.922 300.103 182.692C299.588 182.463 299.176 182.098 298.867 181.599C298.566 181.098 298.369 180.499 298.275 179.801C298.183 179.111 298.217 178.489 298.377 177.935C298.545 177.38 298.847 176.924 299.283 176.567C299.72 176.21 300.295 175.984 301.008 175.888C301.73 175.792 302.344 175.859 302.851 176.089C303.358 176.32 303.763 176.686 304.064 177.186C304.364 177.679 304.56 178.27 304.652 178.96ZM299.371 179.667C299.441 180.19 299.574 180.64 299.77 181.018C299.973 181.386 300.243 181.661 300.582 181.841C300.92 182.014 301.331 182.068 301.815 182.003C302.306 181.937 302.689 181.777 302.961 181.523C303.242 181.267 303.427 180.936 303.518 180.528C303.616 180.112 303.629 179.638 303.558 179.106C303.447 178.282 303.188 177.667 302.778 177.261C302.368 176.848 301.814 176.688 301.116 176.782C300.64 176.845 300.262 177.005 299.981 177.261C299.701 177.516 299.511 177.848 299.413 178.257C299.314 178.665 299.3 179.135 299.371 179.667ZM307.539 175.123C308.427 175.004 309.107 175.083 309.58 175.358C310.059 175.625 310.342 176.075 310.427 176.71C310.485 177.146 310.428 177.537 310.257 177.883C310.085 178.229 309.776 178.512 309.329 178.733L311.625 181.501L310.447 181.659L308.449 179.118L307.224 179.282L307.593 182.041L306.558 182.179L305.647 175.376L307.539 175.123ZM308.052 178.323C308.52 178.261 308.872 178.117 309.108 177.891C309.344 177.666 309.434 177.347 309.379 176.935C309.321 176.499 309.145 176.211 308.852 176.073C308.558 175.927 308.154 175.888 307.638 175.957L306.794 176.07L307.112 178.449L308.052 178.323ZM316.04 173.985L316.159 174.877L314.137 175.148L314.929 181.059L313.894 181.197L313.103 175.286L311.081 175.557L310.961 174.665L316.04 173.985ZM317.513 180.713L317.433 180.118L318.181 179.825L317.482 174.603L316.685 174.528L316.602 173.91L319.195 173.563L319.278 174.181L318.528 174.463L319.227 179.685L320.026 179.771L320.105 180.366L317.513 180.713ZM326.141 172.633L327.052 179.436L325.779 179.607L321.591 174.55L321.543 174.556C321.565 174.658 321.59 174.78 321.617 174.921C321.644 175.063 321.671 175.209 321.699 175.358C321.727 175.508 321.752 175.658 321.772 175.809C321.799 175.95 321.821 176.085 321.838 176.211L322.354 180.065L321.414 180.191L320.503 173.388L321.776 173.217L325.949 178.252L325.984 178.247C325.965 178.161 325.943 178.059 325.919 177.941C325.894 177.815 325.868 177.682 325.841 177.54C325.822 177.397 325.803 177.251 325.782 177.1C325.762 176.949 325.743 176.803 325.724 176.66L325.201 172.759L326.141 172.633ZM334.229 178.149C333.905 178.321 333.542 178.475 333.14 178.609C332.745 178.735 332.322 178.828 331.87 178.888C331.164 178.983 330.544 178.932 330.01 178.738C329.474 178.535 329.037 178.194 328.698 177.715C328.367 177.226 328.15 176.605 328.05 175.852C327.958 175.17 328.012 174.55 328.212 173.99C328.411 173.431 328.757 172.965 329.248 172.592C329.739 172.22 330.369 171.982 331.138 171.879C331.534 171.826 331.916 171.812 332.282 171.835C332.648 171.859 332.987 171.918 333.299 172.014L333.055 172.906C332.759 172.808 332.461 172.747 332.159 172.723C331.865 172.698 331.559 172.707 331.242 172.749C330.711 172.82 330.274 172.992 329.931 173.264C329.596 173.535 329.36 173.881 329.222 174.303C329.092 174.716 329.061 175.18 329.13 175.695C329.246 176.56 329.54 177.186 330.011 177.575C330.483 177.964 331.116 178.105 331.908 177.999C332.138 177.968 332.362 177.922 332.58 177.861C332.797 177.791 332.985 177.718 333.144 177.64L332.899 175.808L331.186 176.038L331.073 175.193L333.785 174.83L334.229 178.149Z" fill="white"/>
<rect x="24.6606" y="195" width="158" height="24" rx="8" transform="rotate(8.77351 24.6606 195)" fill="#0076B2"/>
<path d="M30.4128 213.089L30.5044 212.496L31.3045 212.425L32.108 207.219L31.3646 206.922L31.4598 206.305L34.0452 206.704L33.95 207.321L33.1517 207.38L32.3482 212.586L33.0897 212.895L32.9982 213.488L30.4128 213.089ZM40.9714 207.773L39.9244 214.557L38.6554 214.361L36.0654 208.327L36.018 208.32C36.01 208.424 35.999 208.548 35.985 208.691C35.9709 208.835 35.9563 208.982 35.941 209.134C35.9257 209.285 35.9065 209.436 35.8833 209.586C35.8692 209.73 35.8524 209.865 35.8329 209.991L35.2399 213.834L34.303 213.689L35.3499 206.906L36.6189 207.101L39.2007 213.11L39.2363 213.115C39.2418 213.027 39.2498 212.923 39.2602 212.803C39.2718 212.675 39.2846 212.54 39.2987 212.396C39.3206 212.254 39.3432 212.108 39.3664 211.957C39.3896 211.807 39.4121 211.661 39.4341 211.519L40.0345 207.629L40.9714 207.773ZM42.739 208.046L46.6171 208.645L46.4871 209.487L43.6408 209.047L43.2894 211.324L45.9578 211.736L45.8279 212.578L43.1595 212.166L42.7238 214.989L41.692 214.83L42.739 208.046ZM53.2458 213.128C53.1385 213.824 52.9293 214.419 52.6182 214.913C52.3084 215.4 51.8977 215.753 51.386 215.974C50.8744 216.194 50.2589 216.249 49.5394 216.138C48.8278 216.028 48.2574 215.79 47.8282 215.425C47.3989 215.059 47.1066 214.593 46.9512 214.026C46.8036 213.461 46.7836 212.831 46.8909 212.135C46.9971 211.447 47.2051 210.86 47.5149 210.374C47.8326 209.889 48.2513 209.536 48.7708 209.317C49.2903 209.098 49.9059 209.043 50.6175 209.153C51.3369 209.264 51.9073 209.502 52.3287 209.866C52.75 210.231 53.0344 210.695 53.182 211.261C53.3307 211.818 53.352 212.44 53.2458 213.128ZM47.9802 212.315C47.8997 212.837 47.9 213.307 47.9813 213.724C48.0718 214.135 48.2541 214.474 48.5283 214.743C48.8037 215.004 49.1825 215.172 49.6648 215.247C50.155 215.322 50.5668 215.277 50.9002 215.11C51.2415 214.944 51.5132 214.678 51.7153 214.313C51.9265 213.94 52.073 213.489 52.1548 212.96C52.2817 212.137 52.206 211.474 51.9276 210.97C51.6505 210.458 51.1641 210.148 50.4683 210.04C49.9939 209.967 49.5861 210.013 49.2448 210.179C48.9035 210.345 48.6279 210.61 48.4178 210.974C48.2078 211.339 48.0619 211.786 47.9802 212.315ZM57.0981 210.262C57.9836 210.399 58.6142 210.666 58.9899 211.064C59.3747 211.455 59.5183 211.967 59.4207 212.6C59.3536 213.035 59.1889 213.394 58.9266 213.677C58.6643 213.96 58.2878 214.145 57.7969 214.231L59.2176 217.535L58.0435 217.353L56.8434 214.351L55.6219 214.163L55.1972 216.914L54.1655 216.755L55.2124 209.971L57.0981 210.262ZM56.6869 213.477C57.1534 213.549 57.5317 213.51 57.8219 213.361C58.1121 213.211 58.2889 212.931 58.3524 212.52C58.4195 212.085 58.3321 211.76 58.0901 211.544C57.8494 211.321 57.472 211.17 56.9581 211.09L56.1161 210.961L55.75 213.332L56.6869 213.477ZM68.2196 211.979L67.1727 218.762L66.2002 218.612L66.8573 214.355C66.8817 214.196 66.9085 214.023 66.9378 213.833C66.9762 213.636 67.0122 213.456 67.0457 213.291C67.0792 213.126 67.1061 213.005 67.1262 212.927L67.0906 212.921L64.1247 218.292L63.2234 218.153L62.0165 212.126L61.9809 212.121C61.9687 212.2 61.9532 212.327 61.9342 212.502C61.9165 212.669 61.8963 212.852 61.8737 213.051C61.8512 213.25 61.8258 213.44 61.7978 213.622L61.148 217.832L60.2111 217.688L61.258 210.904L62.693 211.126L63.8836 216.943L63.9073 216.947L66.7846 211.757L68.2196 211.979ZM68.066 218.9L71.6783 212.488L72.8524 212.669L74.3279 219.867L73.1894 219.691L72.8117 217.653L70.2145 217.253L69.2045 219.076L68.066 218.9ZM72.2775 214.742C72.2551 214.625 72.2293 214.504 72.2002 214.378C72.1802 214.245 72.1602 214.113 72.1401 213.98C72.128 213.849 72.1159 213.717 72.1038 213.586C72.0527 213.707 71.9976 213.828 71.9385 213.949C71.8886 214.063 71.8341 214.18 71.7751 214.3C71.7172 214.413 71.6548 214.528 71.5879 214.648L70.6327 216.431L72.637 216.74L72.2775 214.742ZM80.272 213.839L80.1347 214.728L78.1186 214.417L77.2089 220.311L76.1771 220.152L77.0868 214.258L75.0707 213.947L75.208 213.057L80.272 213.839ZM79.7853 220.709L79.8768 220.116L80.677 220.045L81.4805 214.839L80.7371 214.542L80.8323 213.925L83.4177 214.324L83.3225 214.941L82.5242 215L81.7206 220.206L82.4622 220.515L82.3707 221.108L79.7853 220.709ZM90.2492 218.839C90.1418 219.535 89.9326 220.13 89.6215 220.624C89.3117 221.111 88.901 221.464 88.3894 221.685C87.8777 221.905 87.2622 221.96 86.5427 221.849C85.8311 221.739 85.2607 221.501 84.8315 221.136C84.4022 220.77 84.1099 220.304 83.9545 219.737C83.8069 219.172 83.7869 218.542 83.8942 217.846C84.0004 217.158 84.2084 216.571 84.5182 216.085C84.8359 215.599 85.2546 215.247 85.7741 215.028C86.2936 214.809 86.9092 214.754 87.6208 214.864C88.3402 214.975 88.9107 215.212 89.332 215.577C89.7533 215.941 90.0377 216.406 90.1853 216.971C90.334 217.529 90.3553 218.151 90.2492 218.839ZM84.9835 218.026C84.903 218.548 84.9033 219.018 84.9846 219.435C85.0751 219.846 85.2574 220.185 85.5316 220.454C85.807 220.715 86.1858 220.883 86.6681 220.958C87.1583 221.033 87.5701 220.988 87.9035 220.82C88.2448 220.655 88.5165 220.389 88.7186 220.023C88.9298 219.651 89.0763 219.2 89.1581 218.671C89.285 217.848 89.2093 217.185 88.9309 216.681C88.6538 216.168 88.1674 215.859 87.4716 215.751C86.9972 215.678 86.5894 215.724 86.2481 215.89C85.9068 216.056 85.6312 216.321 85.4211 216.685C85.2111 217.05 85.0653 217.497 84.9835 218.026ZM97.8372 216.55L96.7902 223.333L95.5212 223.137L92.9312 217.104L92.8838 217.096C92.8758 217.2 92.8648 217.324 92.8508 217.468C92.8367 217.611 92.8221 217.759 92.8068 217.91C92.7915 218.062 92.7723 218.213 92.7491 218.363C92.735 218.506 92.7182 218.641 92.6987 218.768L92.1057 222.61L91.1688 222.466L92.2157 215.682L93.4847 215.878L96.0665 221.886L96.1021 221.891C96.1076 221.803 96.1156 221.699 96.126 221.579C96.1376 221.452 96.1504 221.316 96.1645 221.173C96.1864 221.03 96.209 220.884 96.2322 220.734C96.2554 220.584 96.2779 220.437 96.2999 220.295L96.9003 216.405L97.8372 216.55ZM100.761 223.946L104.373 217.534L105.547 217.715L107.023 224.913L105.884 224.737L105.507 222.699L102.909 222.299L101.899 224.122L100.761 223.946ZM104.972 219.788C104.95 219.671 104.924 219.55 104.895 219.424C104.875 219.291 104.855 219.159 104.835 219.026C104.823 218.895 104.811 218.763 104.799 218.632C104.748 218.753 104.693 218.874 104.633 218.995C104.584 219.109 104.529 219.226 104.47 219.346C104.412 219.459 104.35 219.574 104.283 219.694L103.328 221.477L105.332 221.786L104.972 219.788ZM110.837 218.556C111.722 218.693 112.353 218.96 112.729 219.358C113.113 219.749 113.257 220.261 113.159 220.894C113.092 221.328 112.928 221.687 112.665 221.971C112.403 222.254 112.027 222.439 111.536 222.525L112.956 225.828L111.782 225.647L110.582 222.645L109.361 222.456L108.936 225.208L107.904 225.049L108.951 218.265L110.837 218.556ZM110.426 221.771C110.892 221.843 111.27 221.804 111.561 221.655C111.851 221.505 112.028 221.225 112.091 220.814C112.158 220.379 112.071 220.054 111.829 219.838C111.588 219.615 111.211 219.464 110.697 219.384L109.855 219.254L109.489 221.626L110.426 221.771ZM117.865 220.442C117.39 220.369 116.971 220.413 116.606 220.575C116.24 220.738 115.941 221.003 115.706 221.371C115.472 221.732 115.314 222.177 115.232 222.707C115.107 223.521 115.19 224.19 115.481 224.712C115.782 225.228 116.304 225.544 117.047 225.658C117.34 225.703 117.625 225.719 117.902 225.705C118.189 225.685 118.47 225.643 118.747 225.581L118.606 226.494C118.337 226.558 118.049 226.59 117.741 226.591C117.433 226.592 117.106 226.566 116.758 226.512C116.054 226.404 115.492 226.167 115.07 225.802C114.649 225.438 114.36 224.976 114.203 224.418C114.056 223.853 114.036 223.222 114.143 222.527C114.248 221.847 114.471 221.266 114.813 220.784C115.162 220.304 115.604 219.955 116.14 219.739C116.684 219.515 117.296 219.456 117.976 219.561C118.316 219.613 118.643 219.7 118.956 219.821C119.277 219.944 119.573 220.098 119.844 220.286L119.37 221.075C119.143 220.918 118.905 220.785 118.655 220.673C118.405 220.562 118.141 220.485 117.865 220.442ZM126.426 220.962L125.379 227.745L124.347 227.586L124.825 224.491L121.551 223.986L121.074 227.081L120.042 226.922L121.089 220.138L122.121 220.297L121.685 223.12L124.958 223.625L125.394 220.803L126.426 220.962ZM126.703 227.95L126.794 227.357L127.594 227.286L128.398 222.08L127.654 221.783L127.749 221.166L130.335 221.565L130.24 222.182L129.441 222.241L128.638 227.447L129.379 227.756L129.288 228.349L126.703 227.95ZM135.956 222.433L135.819 223.322L133.803 223.011L132.893 228.905L131.862 228.746L132.771 222.852L130.755 222.541L130.892 221.651L135.956 222.433ZM136.956 222.587L140.846 223.187L140.716 224.029L137.857 223.588L137.548 225.592L140.228 226.006L140.1 226.836L137.42 226.423L137.07 228.688L139.928 229.129L139.799 229.971L135.909 229.371L136.956 222.587ZM145.128 224.65C144.653 224.576 144.234 224.621 143.869 224.783C143.504 224.945 143.204 225.211 142.969 225.579C142.735 225.94 142.577 226.385 142.495 226.915C142.37 227.729 142.453 228.397 142.745 228.92C143.045 229.436 143.567 229.751 144.311 229.866C144.603 229.911 144.888 229.927 145.165 229.913C145.452 229.892 145.734 229.851 146.01 229.788L145.869 230.701C145.6 230.765 145.312 230.798 145.004 230.799C144.697 230.8 144.369 230.773 144.021 230.72C143.317 230.611 142.755 230.375 142.333 230.01C141.912 229.646 141.623 229.184 141.466 228.626C141.319 228.061 141.299 227.43 141.406 226.734C141.511 226.054 141.734 225.474 142.076 224.992C142.425 224.512 142.868 224.163 143.403 223.946C143.947 223.723 144.56 223.663 145.239 223.768C145.579 223.821 145.906 223.908 146.219 224.029C146.54 224.151 146.836 224.306 147.107 224.494L146.633 225.283C146.406 225.126 146.168 224.992 145.918 224.881C145.668 224.769 145.404 224.692 145.128 224.65ZM152.669 225.012L152.531 225.902L150.515 225.59L149.606 231.485L148.574 231.325L149.484 225.431L147.467 225.12L147.605 224.23L152.669 225.012ZM158.381 230.265C158.297 230.81 158.118 231.26 157.845 231.615C157.572 231.969 157.213 232.222 156.769 232.372C156.334 232.515 155.82 232.541 155.227 232.449C154.365 232.316 153.736 231.988 153.339 231.466C152.951 230.936 152.821 230.261 152.948 229.438L153.609 225.157L154.652 225.318L153.999 229.552C153.91 230.129 153.984 230.594 154.221 230.946C154.467 231.292 154.867 231.507 155.42 231.593C155.958 231.676 156.388 231.588 156.711 231.331C157.043 231.066 157.253 230.653 157.34 230.092L157.997 225.834L159.04 225.995L158.381 230.265ZM162.618 226.548C163.504 226.684 164.134 226.952 164.51 227.35C164.895 227.741 165.039 228.253 164.941 228.885C164.874 229.32 164.709 229.679 164.447 229.962C164.185 230.246 163.808 230.43 163.317 230.517L164.738 233.82L163.564 233.639L162.364 230.637L161.142 230.448L160.717 233.199L159.686 233.04L160.733 226.257L162.618 226.548ZM162.207 229.762C162.674 229.834 163.052 229.796 163.342 229.646C163.632 229.497 163.809 229.216 163.873 228.805C163.94 228.37 163.852 228.045 163.61 227.83C163.37 227.607 162.992 227.455 162.478 227.376L161.636 227.246L161.27 229.618L162.207 229.762ZM166.778 227.19L170.668 227.79L170.538 228.632L167.68 228.191L167.371 230.195L170.051 230.609L169.923 231.439L167.243 231.025L166.893 233.291L169.751 233.732L169.621 234.574L165.731 233.973L166.778 227.19Z" fill="white"/>
<rect x="234" y="233" width="73" height="24" rx="8" transform="rotate(-20.3821 234 233)" fill="#0076B2"/>
<path d="M252.462 241.562C252.654 242.08 252.717 242.56 252.651 243.002C252.585 243.445 252.395 243.84 252.08 244.187C251.77 244.525 251.334 244.798 250.772 245.007C249.954 245.31 249.245 245.331 248.644 245.067C248.047 244.794 247.604 244.268 247.314 243.488L245.805 239.427L246.795 239.059L248.287 243.075C248.491 243.622 248.782 243.992 249.16 244.184C249.544 244.366 249.998 244.36 250.523 244.164C251.033 243.975 251.366 243.689 251.523 243.307C251.684 242.914 251.666 242.451 251.468 241.919L249.967 237.88L250.957 237.513L252.462 241.562ZM258.162 240.136C258.299 240.503 258.326 240.864 258.245 241.219C258.16 241.566 257.971 241.884 257.677 242.172C257.391 242.458 257.004 242.691 256.516 242.872C256.239 242.975 255.984 243.057 255.75 243.118C255.517 243.179 255.298 243.222 255.094 243.247C254.894 243.261 254.696 243.267 254.498 243.263L254.164 242.364C254.489 242.388 254.826 242.378 255.177 242.333C255.532 242.278 255.878 242.188 256.215 242.062C256.613 241.915 256.905 241.712 257.091 241.455C257.274 241.191 257.307 240.901 257.19 240.586C257.11 240.369 256.988 240.213 256.825 240.12C256.663 240.027 256.449 239.97 256.185 239.948C255.926 239.917 255.614 239.904 255.25 239.912C254.84 239.911 254.48 239.882 254.169 239.827C253.863 239.762 253.601 239.641 253.382 239.467C253.171 239.289 253.001 239.028 252.873 238.683C252.734 238.308 252.714 237.957 252.815 237.629C252.912 237.294 253.101 236.998 253.38 236.74C253.668 236.48 254.021 236.272 254.441 236.116C254.794 235.985 255.138 235.9 255.473 235.861C255.816 235.818 256.139 235.805 256.444 235.82L256.417 236.713C256.103 236.693 255.799 236.704 255.507 236.744C255.219 236.774 254.956 236.834 254.716 236.923C254.348 237.059 254.081 237.248 253.915 237.489C253.756 237.727 253.731 237.993 253.839 238.285C253.92 238.503 254.042 238.658 254.204 238.751C254.367 238.845 254.575 238.899 254.829 238.916C255.09 238.93 255.397 238.94 255.749 238.946C256.134 238.948 256.485 238.975 256.803 239.027C257.122 239.08 257.394 239.192 257.62 239.364C257.851 239.526 258.031 239.783 258.162 240.136ZM257.66 235.023L261.349 233.652L261.646 234.45L258.935 235.458L259.641 237.359L262.183 236.414L262.476 237.201L259.934 238.146L260.732 240.295L263.443 239.287L263.74 240.086L260.05 241.457L257.66 235.023ZM264.479 232.489C265.319 232.177 266 232.103 266.522 232.267C267.049 232.422 267.424 232.799 267.646 233.399C267.8 233.811 267.831 234.205 267.74 234.58C267.649 234.955 267.41 235.3 267.023 235.614L269.873 237.807L268.76 238.221L266.249 236.184L265.09 236.614L266.06 239.224L265.081 239.587L262.691 233.153L264.479 232.489ZM265.686 235.497C266.129 235.332 266.44 235.114 266.621 234.842C266.802 234.57 266.819 234.239 266.675 233.849C266.521 233.437 266.287 233.196 265.97 233.125C265.651 233.048 265.248 233.099 264.761 233.28L263.962 233.577L264.798 235.827L265.686 235.497ZM268.425 231.023L272.103 229.656L272.4 230.455L269.7 231.458L270.503 233.618L273.034 232.677L273.33 233.476L270.799 234.416L271.794 237.093L270.816 237.457L268.425 231.023ZM274.127 228.904L276.213 234.517L279.081 233.452L279.386 234.273L275.539 235.702L273.149 229.268L274.127 228.904ZM284.91 228.546C285.155 229.206 285.262 229.828 285.231 230.411C285.198 230.987 285.011 231.496 284.672 231.938C284.333 232.379 283.822 232.727 283.139 232.981C282.464 233.231 281.85 233.302 281.297 233.191C280.744 233.081 280.262 232.816 279.85 232.398C279.446 231.976 279.122 231.435 278.876 230.775C278.634 230.123 278.53 229.509 278.563 228.933C278.604 228.354 278.798 227.843 279.145 227.398C279.492 226.954 280.003 226.606 280.678 226.355C281.36 226.102 281.974 226.031 282.52 226.144C283.065 226.258 283.54 226.525 283.944 226.947C284.346 227.361 284.667 227.894 284.91 228.546ZM279.915 230.402C280.099 230.897 280.328 231.307 280.603 231.632C280.882 231.946 281.207 232.154 281.577 232.255C281.945 232.349 282.357 232.311 282.815 232.141C283.28 231.968 283.617 231.728 283.827 231.419C284.044 231.108 284.152 230.744 284.15 230.326C284.153 229.898 284.062 229.433 283.875 228.931C283.585 228.151 283.196 227.609 282.707 227.304C282.216 226.991 281.64 226.958 280.98 227.203C280.53 227.37 280.196 227.609 279.979 227.92C279.762 228.232 279.65 228.597 279.644 229.018C279.638 229.438 279.729 229.9 279.915 230.402ZM289.731 225.782C289.635 225.639 289.54 225.499 289.447 225.363C289.351 225.219 289.263 225.086 289.183 224.962C289.108 224.828 289.041 224.707 288.985 224.6C289.014 224.726 289.04 224.865 289.063 225.019C289.091 225.162 289.113 225.312 289.128 225.469C289.151 225.622 289.17 225.777 289.186 225.934L289.617 230.471L288.548 230.868L284.448 225.07L285.415 224.71L287.787 228.13C287.896 228.286 288.011 228.457 288.131 228.643C288.249 228.821 288.361 228.997 288.468 229.17C288.572 229.336 288.662 229.486 288.738 229.62C288.715 229.467 288.689 229.306 288.66 229.137C288.639 228.966 288.614 228.783 288.585 228.589C288.563 228.392 288.542 228.187 288.522 227.972L288.104 223.711L289.06 223.356L291.561 226.882C291.667 227.03 291.776 227.186 291.888 227.349C292 227.512 292.106 227.673 292.208 227.832C292.307 227.983 292.393 228.122 292.465 228.248C292.436 228.123 292.409 227.971 292.385 227.792C292.361 227.613 292.339 227.438 292.318 227.266C292.304 227.092 292.291 226.952 292.277 226.846L291.793 222.34L292.75 221.985L293.419 229.059L292.351 229.456L289.731 225.782ZM299.389 224.818C299.526 225.186 299.553 225.547 299.472 225.901C299.387 226.248 299.198 226.566 298.904 226.855C298.618 227.14 298.231 227.374 297.743 227.555C297.466 227.658 297.21 227.74 296.977 227.801C296.744 227.862 296.525 227.905 296.321 227.93C296.121 227.944 295.923 227.949 295.725 227.946L295.391 227.046C295.716 227.071 296.053 227.06 296.404 227.015C296.759 226.96 297.105 226.87 297.442 226.745C297.84 226.597 298.132 226.395 298.318 226.138C298.501 225.873 298.534 225.584 298.417 225.269C298.337 225.051 298.215 224.896 298.052 224.803C297.89 224.71 297.676 224.652 297.412 224.631C297.153 224.599 296.841 224.587 296.477 224.594C296.067 224.593 295.706 224.565 295.396 224.51C295.09 224.444 294.828 224.324 294.609 224.149C294.398 223.971 294.228 223.71 294.1 223.365C293.961 222.99 293.941 222.639 294.041 222.312C294.139 221.977 294.328 221.681 294.607 221.423C294.895 221.163 295.248 220.954 295.668 220.798C296.021 220.667 296.365 220.582 296.7 220.543C297.043 220.501 297.366 220.487 297.671 220.502L297.644 221.396C297.329 221.376 297.026 221.386 296.734 221.427C296.446 221.457 296.182 221.516 295.943 221.605C295.575 221.742 295.308 221.931 295.142 222.172C294.983 222.41 294.958 222.675 295.066 222.968C295.147 223.185 295.269 223.341 295.431 223.434C295.594 223.527 295.802 223.582 296.056 223.599C296.317 223.613 296.624 223.622 296.976 223.628C297.361 223.63 297.712 223.658 298.03 223.71C298.348 223.762 298.621 223.875 298.847 224.047C299.077 224.209 299.258 224.466 299.389 224.818Z" fill="white"/>
</g>
<defs>
<filter id="filter0_ddddii_93_313" x="-96.9205" y="-109.388" width="592.947" height="375.038" filterUnits="userSpaceOnUse" color-interpolation-filters="sRGB">
<feFlood flood-opacity="0" result="BackgroundImageFix"/>
<feColorMatrix in="SourceAlpha" type="matrix" values="0 0 0 0 0 0 0 0 0 0 0 0 0 0 0 0 0 0 127 0" result="hardAlpha"/>
<feOffset dx="50" dy="50"/>
<feGaussianBlur stdDeviation="62.5"/>
<feColorMatrix type="matrix" values="0 0 0 0 0.603922 0 0 0 0 0.603922 0 0 0 0 0.603922 0 0 0 0.9 0"/>
<feBlend mode="normal" in2="BackgroundImageFix" result="effect1_dropShadow_93_313"/>
<feColorMatrix in="SourceAlpha" type="matrix" values="0 0 0 0 0 0 0 0 0 0 0 0 0 0 0 0 0 0 127 0" result="hardAlpha"/>
<feOffset dx="-50" dy="-50"/>
<feGaussianBlur stdDeviation="50"/>
<feColorMatrix type="matrix" values="0 0 0 0 1 0 0 0 0 1 0 0 0 0 1 0 0 0 0.9 0"/>
<feBlend mode="normal" in2="effect1_dropShadow_93_313" result="effect2_dropShadow_93_313"/>
<feColorMatrix in="SourceAlpha" type="matrix" values="0 0 0 0 0 0 0 0 0 0 0 0 0 0 0 0 0 0 127 0" result="hardAlpha"/>
<feOffset dx="50" dy="-50"/>
<feGaussianBlur stdDeviation="50"/>
<feColorMatrix type="matrix" values="0 0 0 0 0.603922 0 0 0 0 0.603922 0 0 0 0 0.603922 0 0 0 0.2 0"/>
<feBlend mode="normal" in2="effect2_dropShadow_93_313" result="effect3_dropShadow_93_313"/>
<feColorMatrix in="SourceAlpha" type="matrix" values="0 0 0 0 0 0 0 0 0 0 0 0 0 0 0 0 0 0 127 0" result="hardAlpha"/>
<feOffset dx="-50" dy="50"/>
<feGaussianBlur stdDeviation="50"/>
<feColorMatrix type="matrix" values="0 0 0 0 0.603922 0 0 0 0 0.603922 0 0 0 0 0.603922 0 0 0 0.2 0"/>
<feBlend mode="normal" in2="effect3_dropShadow_93_313" result="effect4_dropShadow_93_313"/>
<feBlend mode="normal" in="SourceGraphic" in2="effect4_dropShadow_93_313" result="shape"/>
<feColorMatrix in="SourceAlpha" type="matrix" values="0 0 0 0 0 0 0 0 0 0 0 0 0 0 0 0 0 0 127 0" result="hardAlpha"/>
<feOffset dx="-2" dy="-2"/>
<feGaussianBlur stdDeviation="1.5"/>
<feComposite in2="hardAlpha" operator="arithmetic" k2="-1" k3="1"/>
<feColorMatrix type="matrix" values="0 0 0 0 0.603922 0 0 0 0 0.603922 0 0 0 0 0.603922 0 0 0 0.5 0"/>
<feBlend mode="normal" in2="shape" result="effect5_innerShadow_93_313"/>
<feColorMatrix in="SourceAlpha" type="matrix" values="0 0 0 0 0 0 0 0 0 0 0 0 0 0 0 0 0 0 127 0" result="hardAlpha"/>
<feOffset dx="2" dy="2"/>
<feGaussianBlur stdDeviation="1.5"/>
<feComposite in2="hardAlpha" operator="arithmetic" k2="-1" k3="1"/>
<feColorMatrix type="matrix" values="0 0 0 0 1 0 0 0 0 1 0 0 0 0 1 0 0 0 0.3 0"/>
<feBlend mode="normal" in2="effect5_innerShadow_93_313" result="effect6_innerShadow_93_313"/>
</filter>
<linearGradient id="paint0_linear_93_313" x1="51" y1="20" x2="103.146" y2="181.124" gradientUnits="userSpaceOnUse">
<stop offset="1" stop-color="white"/>
<stop stop-color="#EAEAEA"/>
</linearGradient>
<clipPath id="clip0_93_313">
<rect width="376" height="260" rx="8" fill="white"/>
</clipPath>
</defs>
</svg>
