<svg width="36" height="36" viewBox="0 0 36 36" fill="none" xmlns="http://www.w3.org/2000/svg">
<path d="M4.94354 30.903L14.4895 21.357M26.5105 17.112L23.653 25.686C23.6072 25.8232 23.5291 25.9472 23.4251 26.0478C23.3212 26.1483 23.1946 26.2223 23.056 26.2635L5.53904 31.4715C5.38123 31.5184 5.21358 31.5211 5.05435 31.4793C4.89512 31.4375 4.75039 31.3528 4.63593 31.2345C4.52148 31.1162 4.44166 30.9687 4.40519 30.8082C4.36871 30.6477 4.37696 30.4802 4.42904 30.324L10.117 13.263C10.1578 13.1405 10.2245 13.0282 10.3125 12.9338C10.4004 12.8393 10.5077 12.7649 10.627 12.7155L18.7075 9.38853C18.8718 9.32068 19.0525 9.30299 19.2268 9.3377C19.4011 9.3724 19.5613 9.45794 19.687 9.58353L26.293 16.191C26.4112 16.3092 26.4942 16.458 26.5326 16.6206C26.571 16.7833 26.5634 16.9535 26.5105 17.112Z" stroke="black" stroke-width="1.5" stroke-linecap="round" stroke-linejoin="round"/>
<path d="M27.6037 4.77303L31.1497 8.31903C31.4161 8.57397 31.629 8.87957 31.7757 9.21789C31.9225 9.55622 32.0002 9.92045 32.0043 10.2892C32.0084 10.658 31.9387 11.0238 31.7995 11.3653C31.6602 11.7068 31.4542 12.017 31.1934 12.2778C30.9327 12.5386 30.6224 12.7446 30.2809 12.8839C29.9395 13.0231 29.5736 13.0927 29.2048 13.0887C28.8361 13.0846 28.4718 13.0069 28.1335 12.8601C27.7952 12.7134 27.4896 12.5005 27.2347 12.234L23.6872 8.68803C23.1868 8.16505 22.9111 7.46695 22.9191 6.74321C22.9271 6.01947 23.2182 5.32763 23.73 4.81584C24.2418 4.30405 24.9336 4.01299 25.6573 4.00499C26.3811 3.99699 27.0807 4.27268 27.6037 4.77303Z" fill="#808080" stroke="#808080" stroke-width="1.5" stroke-linecap="round" stroke-linejoin="round"/>
<path d="M17.6711 18.174C17.4636 17.9591 17.2153 17.7877 16.9408 17.6698C16.6663 17.5519 16.371 17.4898 16.0723 17.4872C15.7735 17.4846 15.4773 17.5415 15.2007 17.6547C14.9242 17.7678 14.673 17.9349 14.4617 18.1461C14.2505 18.3574 14.0834 18.6086 13.9703 18.8851C13.8572 19.1616 13.8002 19.4579 13.8028 19.7567C13.8054 20.0554 13.8675 20.3507 13.9854 20.6252C14.1033 20.8997 14.2747 21.148 14.4896 21.3555C14.914 21.7654 15.4823 21.9922 16.0723 21.987C16.6622 21.9819 17.2266 21.7453 17.6437 21.3281C18.0609 20.9109 18.2975 20.3466 18.3026 19.7567C18.3078 19.1667 18.081 18.5984 17.6711 18.174Z" stroke="black" stroke-width="1.5" stroke-linecap="round" stroke-linejoin="round"/>
</svg>
